<svg id="Layer_1" data-name="Layer 1" xmlns="http://www.w3.org/2000/svg" viewBox="0 0 1150 626.5"><defs><style>.cls-1{fill:#fff;}</style></defs><path class="cls-1" d="M112.52,149.19q-7.22,0-10.69,4a14.22,14.22,0,0,0-3.48,9.7q0,9.45,5,13.3A19.31,19.31,0,0,0,115.51,180a14.31,14.31,0,0,0,11.56-5.23,19.69,19.69,0,0,0,4.85-10.94q0-9.45-3.61-16A29.94,29.94,0,0,0,118.24,137a46.29,46.29,0,0,0-15.54-6.22,94,94,0,0,0-20-2q-16.41,0-24.86,5.6T45.88,146.7a35.69,35.69,0,0,0-4,17.91V223H24v4.23H41.9V380.94a38.89,38.89,0,0,1-.37,4.23,18,18,0,0,1-2.11,6.21,17.8,17.8,0,0,1-5,5.72c-2.15,1.66-5.06,2.49-8.7,2.49H96.11q-5.48,0-8.7-2.49a16.45,16.45,0,0,1-4.85-5.72,21.85,21.85,0,0,1-2.11-6.21,28.74,28.74,0,0,1-.5-4.23V227.27h22.38V223H80V164.61a68.82,68.82,0,0,1,.74-15.92,33.24,33.24,0,0,1,4.36-10.94q3.11-5,9.57-5a35.46,35.46,0,0,1,14,2.61,29,29,0,0,1,9.07,5.6c2,2,2.65,3.85,2,5.59S116.66,149.19,112.52,149.19Z"/><path class="cls-1" d="M371,333.45a70.89,70.89,0,0,0,21.63,14.17,67.08,67.08,0,0,0,26.48,5.22,68,68,0,0,0,26.61-5.22,70.61,70.61,0,0,0,21.75-14.17,65.84,65.84,0,0,0,14.68-21,64.71,64.71,0,0,0,0-51.48,66,66,0,0,0-14.68-21,70.43,70.43,0,0,0-21.75-14.17,68,68,0,0,0-26.61-5.22,67.08,67.08,0,0,0-26.48,5.22A70.71,70.71,0,0,0,371,240a66,66,0,0,0-14.68,21,64.71,64.71,0,0,0,0,51.48A65.84,65.84,0,0,0,371,333.45Zm17-70.62a69.53,69.53,0,0,1,6.09-19,35.34,35.34,0,0,1,10.32-12.68,24,24,0,0,1,14.67-4.6,20.46,20.46,0,0,1,12.68,4.6,42,42,0,0,1,10.57,12.68,75.65,75.65,0,0,1,7.34,19,105.72,105.72,0,0,1,0,47.74,75.13,75.13,0,0,1-7.34,19,41.75,41.75,0,0,1-10.57,12.68,20.4,20.4,0,0,1-12.68,4.6,23.94,23.94,0,0,1-14.67-4.6,35.16,35.16,0,0,1-10.32-12.68,69.12,69.12,0,0,1-6.09-19,144.16,144.16,0,0,1,0-47.74Z"/><path class="cls-1" d="M1067.48,339.41q4.59-6.45,4.6-18.4a25.73,25.73,0,0,1-3.11,12.93q-3.12,5.47-7,7t-7-2q-3.11-3.48-3.11-13.93V257.36c0-1.33,0-3.15-.12-5.47a27.61,27.61,0,0,0-1.49-7.59,27.57,27.57,0,0,0-14.18-15.91,66.47,66.47,0,0,0-16.16-5.6,111.4,111.4,0,0,0-24.24-2.23,55.36,55.36,0,0,0-29.47,8.95,40.8,40.8,0,0,0-10.44,9.82,20.31,20.31,0,0,0-4.1,12.31,18.88,18.88,0,0,0,18.65,18.9,20.54,20.54,0,0,0,13.55-5.72,17.65,17.65,0,0,0,5.34-13.18,18.48,18.48,0,0,0-5.47-13.18,17.86,17.86,0,0,0-13.42-5.72q-5,0-4.23-1.12c.5-.74,1.9-1.53,4.23-2.36a73.12,73.12,0,0,1,8.33-2.36,38.43,38.43,0,0,1,8.57-1.12q10.2,0,15.67,3.85a22.61,22.61,0,0,1,7.83,9.08,30.41,30.41,0,0,1,2.74,10.44q.38,5.22.37,8.21v3.48a10.08,10.08,0,0,1-3,6.71,19.46,19.46,0,0,1-7.09,4.48q-4.85,2-14.05,2a61.43,61.43,0,0,0-23.62,4.22,38.08,38.08,0,0,0-8.58,4.73,36.91,36.91,0,0,0-7.46,7.33,34.64,34.64,0,0,0-5.35,10.45,45.13,45.13,0,0,0-2,14.05,41.64,41.64,0,0,0,2,13.67c.07.2.15.37.22.56a22.56,22.56,0,0,1-2.08,5.16q-3.1,5.47-7,7t-7-2q-3.12-3.48-3.11-13.93V252.63q0-11.92-5.85-18.52a35.67,35.67,0,0,0-13-9.58,54.63,54.63,0,0,0-18.9-4,68.31,68.31,0,0,0-12.93,1.74A49.49,49.49,0,0,0,864,226.4a31.38,31.38,0,0,0-9.94,7.83V223H802.58v.16a12.93,12.93,0,0,1,6.79,2.58,16.83,16.83,0,0,1,4.85,6,24.85,24.85,0,0,1,2,8.7V367a25.43,25.43,0,0,1-2,9,15.32,15.32,0,0,1-4.85,6.09q-3.36,2.61-9.57,2.61h70.62q-6.23,0-9.58-2.61A15.5,15.5,0,0,1,856,376a25.21,25.21,0,0,1-2-9V237.46q9.43-6.45,16.9-7.46a17.49,17.49,0,0,1,6.22.13,10.85,10.85,0,0,1,5.47,3.11,17.41,17.41,0,0,1,4,7.21,41.49,41.49,0,0,1,1.49,12.18v72.61q0,10.44,4.48,15.91a30.55,30.55,0,0,0,9.94,8.21,40.05,40.05,0,0,0,14.43,3.48,34.58,34.58,0,0,0,14.42-4,31.17,31.17,0,0,0,10.07-9.32,23.88,23.88,0,0,0,3.87-9.74,32.59,32.59,0,0,0,12.29,15.58,35.65,35.65,0,0,0,8.58,4.23q10.19,3.74,23.62,3.23a22,22,0,0,0,10.57-2.48,31.57,31.57,0,0,0,7.71-5.72,31.94,31.94,0,0,0,4.85-6.35,43.73,43.73,0,0,0,2.23-4.35q2,7.21,6.59,11.07a31.7,31.7,0,0,0,9.33,5.59,30.37,30.37,0,0,0,11.68,2.24,35.1,35.1,0,0,0,14.68-4A30.7,30.7,0,0,0,1067.48,339.41ZM1013.89,329a21.63,21.63,0,0,1-1.62,6.09,25.74,25.74,0,0,1-3.73,6.34,27.32,27.32,0,0,1-5.22,5.1,10.07,10.07,0,0,1-6.09,2.11q-4.72-.5-8.45-5-3.24-3.74-5.85-11.44t-2.61-22.63q0-10.19,2.36-16.16a26,26,0,0,1,5.85-9.32,22.67,22.67,0,0,1,7.71-5c2.81-1.07,5.47-2.15,8-3.23a23.11,23.11,0,0,0,6.47-4.1c1.82-1.66,3-4.14,3.48-7.46Z"/><path class="cls-1" d="M1119.44,347.37a14,14,0,0,1-4.35-5.47,18.12,18.12,0,0,1-1.74-8.2V133.77h-49.48c3.81,0,6.71.88,8.7,2.62a18.43,18.43,0,0,1,4.48,5.59,22.22,22.22,0,0,1,2,8.21V333.7a20.66,20.66,0,0,1-2,8.2,17.14,17.14,0,0,1-4.48,5.47q-3,2.49-8.7,2.49h64.4C1124.46,349.86,1121.51,349,1119.44,347.37Z"/><path class="cls-1" d="M374.58,374q-7.21,0-10.7,4a14.24,14.24,0,0,0-3.48,9.7q0,9.45,5,13.31a19.26,19.26,0,0,0,12.18,3.85,14.29,14.29,0,0,0,11.56-5.22A19.65,19.65,0,0,0,394,388.72q0-9.45-3.6-16a30.15,30.15,0,0,0-10.07-10.82,46.42,46.42,0,0,0-15.55-6.21A90.52,90.52,0,0,0,347,353.71l.05,0a3.21,3.21,0,0,1-3.06-3.45v-97.6q0-11.92-5.84-18.52a35.78,35.78,0,0,0-13.06-9.58,54.63,54.63,0,0,0-18.9-4,68.31,68.31,0,0,0-12.93,1.74,49.84,49.84,0,0,0-11.19,4.1,31.38,31.38,0,0,0-9.94,7.83V223H218c4.14,0,7.34.92,9.57,2.74a16.83,16.83,0,0,1,4.85,6,24.85,24.85,0,0,1,2,8.7V332.2c-.17,3.32-.83,23.71-2,26.36a15.32,15.32,0,0,1-4.85,6.09c-2.23,1.74-5.43,2.61-9.57,2.61h70.62q-6.22,0-9.57-2.61a15.32,15.32,0,0,1-4.85-6.09c-1.16-2.65-1.83-23-2-26.36V237.46c6.3-4.3,9.67-6.79,14.64-7.46a17.49,17.49,0,0,1,6.22.13,10.85,10.85,0,0,1,5.47,3.11,17.64,17.64,0,0,1,4,7.21A41.49,41.49,0,0,1,304,252.63V375c0,.27,0,.51.05.77v10.34c-.06,1.11-.09,2.23-.06,3.38V447.9H286.05v4.22H304V580.93a39.64,39.64,0,0,1-.38,4.23,17.67,17.67,0,0,1-2.11,6.21,18,18,0,0,1-5,5.72q-3.24,2.49-8.7,2.49h70.37c-3.65,0-6.56-.83-8.71-2.49a16.65,16.65,0,0,1-4.85-5.72,22,22,0,0,1-2.11-6.21,30.22,30.22,0,0,1-.5-4.23V452.12h22.38V447.9H342V389.46a69.22,69.22,0,0,1,.75-15.91,33.26,33.26,0,0,1,4.35-10.94q3.11-5,9.57-5a35.39,35.39,0,0,1,14.05,2.61,29.25,29.25,0,0,1,9.08,5.6q3,3,2,5.59C381.12,373.18,378.72,374,374.58,374Z"/><path class="cls-1" d="M753,373.67A16.47,16.47,0,0,1,760.12,363a14.55,14.55,0,0,1,8.32-2.11H714V439a40.58,40.58,0,0,0-2.36-6.59,23.75,23.75,0,0,0-4.6-6.72,26.06,26.06,0,0,0-7.71-5.34,27.11,27.11,0,0,0-11.69-2.24,60.06,60.06,0,0,0-19.52,2.86,48.73,48.73,0,0,0-24.62,18.15,59.91,59.91,0,0,0-6.59,12.06q-6.21,14.42-6.21,32.82.24,18.65,5.72,33.32a59.28,59.28,0,0,0,5.05,10.49,21.56,21.56,0,0,1-1.69,3.93q-3.12,5.47-7,7t-7-2q-3.11-3.48-3.1-13.93v-72.6q0-11.94-5.85-18.53a35.8,35.8,0,0,0-13-9.57,54.68,54.68,0,0,0-18.9-4A68.31,68.31,0,0,0,572,419.8a50,50,0,0,0-11.19,4.1,31.41,31.41,0,0,0-10,7.83V420.54H499.26v.16a13,13,0,0,1,7,2.58,17,17,0,0,1,4.85,6,24.85,24.85,0,0,1,2,8.7v91.76a25.43,25.43,0,0,1-2,8.95,15.41,15.41,0,0,1-4.85,6.09,11.62,11.62,0,0,1-4.14,2,10.73,10.73,0,0,1-4.19-2.09,16.76,16.76,0,0,1-4.72-6.22,25,25,0,0,1-2-8.95V420.54H440.11v.13a14.41,14.41,0,0,1,6.58,2,13.48,13.48,0,0,1,4.72,5,17.13,17.13,0,0,1,1.87,5.72,35.73,35.73,0,0,1,.37,4.1v96q-9.45,6.46-16.91,7.46a17.21,17.21,0,0,1-6.21-.13,10.49,10.49,0,0,1-5.35-3,17.18,17.18,0,0,1-3.85-7.09,41.11,41.11,0,0,1-1.5-12.18v-98H369.29v.18a14.24,14.24,0,0,1,6.28,1.94,13.59,13.59,0,0,1,4.73,5,15.38,15.38,0,0,1,1.74,5.72c.16,1.91.33,3.27.49,4.1v81.07q0,11.93,5.72,18.4a35.12,35.12,0,0,0,12.93,9.44,53.81,53.81,0,0,0,18.65,4,67.83,67.83,0,0,0,12.69-1.74,58.29,58.29,0,0,0,11.06-4,28.41,28.41,0,0,0,10.07-8v10.69H567.28q-6.21,0-9.57-2.61a15.41,15.41,0,0,1-4.85-6.09,25.43,25.43,0,0,1-2-8.95V435q9.45-6.47,16.91-7.46a17.5,17.5,0,0,1,6.22.12,10.85,10.85,0,0,1,5.47,3.11,17.64,17.64,0,0,1,4,7.21,41.51,41.51,0,0,1,1.49,12.19v72.6q0,10.46,4.47,15.92a30.68,30.68,0,0,0,10,8.2,40,40,0,0,0,14.42,3.48,34.48,34.48,0,0,0,14.43-4A31.17,31.17,0,0,0,638.28,537a23.12,23.12,0,0,0,3.62-8.57c.2.33.39.66.6,1a44.83,44.83,0,0,0,22.75,18,51.3,51.3,0,0,0,17.91,2.86q9.2,0,14.91-3.23a27.36,27.36,0,0,0,9-7.71,33.25,33.25,0,0,0,4.72-8.95c1-3,1.74-5.38,2.24-7.21v24.12h54.45q-6.21,0-9.44-3a18.43,18.43,0,0,1-4.73-6.72,28.91,28.91,0,0,1-2-9.7V378C752.45,377,752.69,375.58,753,373.67ZM714,514.54q-3.24,14.16-9.2,22.87t-13.43,8.71a17.71,17.71,0,0,1-9.82-3q-4.6-3-8.08-10.07T668,513.91a188,188,0,0,1-2-30,185.9,185.9,0,0,1,2-29.84q2-11.92,5.47-19t8.08-9.95a18.31,18.31,0,0,1,9.82-2.85,19.37,19.37,0,0,1,13.43,5.47q6,5.46,9.2,19.64Z"/><path class="cls-1" d="M851.49,482.71l-36.3-31.33a45.18,45.18,0,0,1-9.08-9.95q-3.86-5.71-3.85-10.57t5-7.83q5-3,17.41-2a43.42,43.42,0,0,1,11.81,2.86,30.32,30.32,0,0,1,8.58,5.22,32.67,32.67,0,0,1,5.84,6.84,34.94,34.94,0,0,1,3.61,7.46A54.7,54.7,0,0,1,857,463.31h2.24l.25-44h-1a7.86,7.86,0,0,1-3.36,5.35,6.68,6.68,0,0,1-3.61.87,11.19,11.19,0,0,1-4.35-1q-2.37-1-5.59-2.23c-2.16-.83-4.6-1.62-7.34-2.37a56.41,56.41,0,0,0-9.57-1.61,63.46,63.46,0,0,0-21.26,1.49,50.78,50.78,0,0,0-16.91,7.46,34,34,0,0,0-10.82,12.06,25.67,25.67,0,0,0-2.86,15q.87,8,7.09,16.54t18.9,16.78l21.13,15.92q8.21,5.22,11.32,12.8a22,22,0,0,1,1.24,14.42,21.54,21.54,0,0,1-8.33,11.69q-6.46,4.85-17.16,4.85a32.39,32.39,0,0,1-11.19-1.74,25.21,25.21,0,0,1-8.08-4.72,28.78,28.78,0,0,1-5.59-6.72,35.17,35.17,0,0,1-3.48-7.71,60.25,60.25,0,0,1-2.49-21.13h-2.24l-.25,44h1a6.08,6.08,0,0,1,1.24-3,7.77,7.77,0,0,1,2.11-2.23,6,6,0,0,1,3.61-1,10,10,0,0,1,4.1,1.12c1.58.75,3.48,1.58,5.72,2.49a56.45,56.45,0,0,0,8,2.48,47.1,47.1,0,0,0,11.06,1.12q23.13,0,36.06-7.46t17.28-18.15a32.53,32.53,0,0,0,.87-22.25A41,41,0,0,0,851.49,482.71Z"/><path class="cls-1" d="M209.5,326.61a48,48,0,0,1-10.57,12.06,39.9,39.9,0,0,1-15.29,7.83,27.13,27.13,0,0,1-9.14.84,37.65,37.65,0,0,1-10-2.21A19,19,0,0,1,155,337.8,50.62,50.62,0,0,1,149,325.86a75,75,0,0,1-3.48-13.67q-1.12-7.1-1.49-13.18t-.38-9.95V285h82.56a92.48,92.48,0,0,0-8.7-32.08,69.15,69.15,0,0,0-7.59-11.81,52.61,52.61,0,0,0-26.23-17.78,66.47,66.47,0,0,0-19.89-2.73,55.45,55.45,0,0,0-42,18.65,63.85,63.85,0,0,0-12.06,20.51,73.17,73.17,0,0,0-4.35,25.49q0,18.9,5,31.82t13.06,20.89A47.27,47.27,0,0,0,142,349.36a69.86,69.86,0,0,0,22,3.48,63.51,63.51,0,0,0,19.9-2.73,47.69,47.69,0,0,0,13.8-7,40.1,40.1,0,0,0,8.95-9.07,43.73,43.73,0,0,0,5-9.08c.34-.89.67-1.86,1-2.85l-.58-.24A50.12,50.12,0,0,1,209.5,326.61Zm-65.52-63a84.56,84.56,0,0,1,2.61-18A36.85,36.85,0,0,1,153.8,231q5-6,13.92-6t13.93,6a37,37,0,0,1,7.21,14.55,84.56,84.56,0,0,1,2.61,18q.38,9.45.37,16.17H143.6Q143.6,273,144,263.57Z"/><path class="cls-1" d="M493.71,231.5a22.17,22.17,0,0,1,2,8.2v95.74a23.29,23.29,0,0,1-2,8.7,15.41,15.41,0,0,1-4.85,6.09,13.78,13.78,0,0,1-7.42,2.49v.12h51.8V236.47c.5-.33,1.7-1.08,3.61-2.24a37.77,37.77,0,0,1,6.59-3.11,35.37,35.37,0,0,1,7.83-1.86,12.49,12.49,0,0,1,7.59,1.37q3.46,1.86,5.71,6.83t2.24,14.43V367.51a23,23,0,0,1-2,8.7,15.84,15.84,0,0,1-4.85,5.85,13.3,13.3,0,0,1-6.88,2.47v.14H618.2v-.13a13.07,13.07,0,0,1-7.13-2.48,16.34,16.34,0,0,1-4.72-5.85,23,23,0,0,1-2-8.7V251.89a33.7,33.7,0,0,0-1-8.71,25.89,25.89,0,0,0-3-7q1.74-1,4.73-2.61a35.49,35.49,0,0,1,6.59-2.73,24.42,24.42,0,0,1,7.33-1.12,11.29,11.29,0,0,1,6.71,2.11,15.46,15.46,0,0,1,5,7q2,4.86,2,13.55v73.11q0,10.44,4.47,15.79a31.16,31.16,0,0,0,10,8.08,40,40,0,0,0,14.42,3.48,34.58,34.58,0,0,0,14.42-4,29.9,29.9,0,0,0,9.95-9.32q3.92-5.57,4.41-15.42a52.87,52.87,0,0,0,9.88,13.8,47.41,47.41,0,0,0,18.65,11.44,69.93,69.93,0,0,0,22,3.48,63.45,63.45,0,0,0,19.89-2.73,47.69,47.69,0,0,0,13.8-7,39.9,39.9,0,0,0,9-9.07,43.82,43.82,0,0,0,5-9.08c.47-1.23.91-2.57,1.33-4l-.41-.17a51.13,51.13,0,0,1-3,5.78,48,48,0,0,1-10.56,12.06,40,40,0,0,1-15.3,7.83q-8.7,2.37-19.14-1.37a18.88,18.88,0,0,1-9.45-7.33,50.25,50.25,0,0,1-6.09-11.94,75.06,75.06,0,0,1-3.49-13.67q-1.11-7.1-1.49-13.18t-.37-9.95V285H803a92.48,92.48,0,0,0-8.7-32.08,69.69,69.69,0,0,0-7.58-11.81,52.7,52.7,0,0,0-26.24-17.78,66.43,66.43,0,0,0-19.89-2.73,55.41,55.41,0,0,0-42,18.65,63.85,63.85,0,0,0-12.06,20.51,73.17,73.17,0,0,0-4.35,25.49q0,18.9,5,31.82a71.49,71.49,0,0,0,3.09,6.94,24.59,24.59,0,0,1-3,10.22q-3.12,5.47-7,7.09t-7-1.87q-3.11-3.48-3.11-13.92V252.38q0-11.92-5.84-18.4a36.37,36.37,0,0,0-13-9.45,54,54,0,0,0-18.65-4A63.9,63.9,0,0,0,620,222.3a51,51,0,0,0-10.95,4.1,31.49,31.49,0,0,0-9.94,7.83,28.11,28.11,0,0,0-9.57-8.08,50.69,50.69,0,0,0-10.57-4.1,49.86,49.86,0,0,0-12.19-1.49,64.37,64.37,0,0,0-12.68,1.24,59.92,59.92,0,0,0-10.94,3.85,28.37,28.37,0,0,0-10,7.59V223H479.29q6.21,0,9.57,2.61A15.94,15.94,0,0,1,493.71,231.5Zm227.14,32.07a84.56,84.56,0,0,1,2.61-18A37.11,37.11,0,0,1,730.67,231q5-6,13.93-6t13.92,6a37,37,0,0,1,7.22,14.55,84.56,84.56,0,0,1,2.61,18q.36,9.45.37,16.17H720.48Q720.48,273,720.85,263.57Z"/><path class="cls-1" d="M233,85h.82c1.7,0,3.39-.47,3.39-1.63a5.68,5.68,0,0,0-.54-2.24l-2.51-6.87H222.63l-1.5,4.42A20.07,20.07,0,0,0,220,83.07c0,1.63,2.24,1.9,3.53,1.9h.82v1.77c-2.31-.07-4.63-.13-6.94-.13-1.77,0-3.74.06-5.57.13V85c3.47,0,4.48-1.42,5-2.85l9.72-24.82a6.83,6.83,0,0,0,.68-2.24,4.45,4.45,0,0,0-.14-1l5.24-2L242.55,81c1.09,3.13,2.11,4,5.71,4v1.77c-2.58-.07-5.1-.13-7.62-.13s-5.09.06-7.61.13Zm-4.49-26.65h-.13l-5,13.74h10Z"/><path class="cls-1" d="M289.8,58.19c0-2.59-1.84-3-5-3V53.43c4.41.07,8.77.13,13.18.13,6.4,0,10.41-.06,14.35-.13l.27,7.48h-1.36c-.88-4.69-2.24-5.31-8.29-5.31h-7.28V68.45H302c3.4,0,4.9-.07,4.9-4.21h1.77c-.07,1.76-.14,3.6-.14,5.44s.07,3.74.14,5.64h-1.77c0-4.28-.89-4.69-4.9-4.69h-6.39v10c0,3.61,1.5,4.35,4.69,4.35h1.43v1.77c-2.65-.07-5.51-.13-9.18-.13-2.58,0-5.23.06-7.81.13V85c3.19,0,5-.4,5-3Z"/><path class="cls-1" d="M352.48,86.74c-4.9-.07-9.72-.13-14.62-.13-4.35,0-8.77.06-13.12.13V85c3.2,0,5-.4,5-3V58.19c0-2.59-1.83-3-5-3V53.43c3.06.07,6.12.13,9.18.13,5.57,0,11.22-.06,16.72-.13l.41,7.2h-1.43c-.81-4.62-2-5-9-5h-5V68.45h5.64c3.4,0,4.9-.07,4.9-4.76h1.76c-.06,1.77-.13,3.61-.13,5.44s.07,3.74.13,5.65h-1.76c0-3.74-.89-4.15-4.9-4.15h-5.64v9.92c0,2.93,1.63,4,7.27,4,6.87,0,7.35-.89,10-5.38h1.7Z"/><path class="cls-1" d="M401.63,53.43c1.57.07,3.2.13,4.76.13,1.77,0,3.81-.06,5.51-.13v1.76c-3.27,0-4.69.62-4.69,2.18,0,1.09.06,2,.13,3.81L408,78.85c.21,5.78,1.16,6.12,5.44,6.12v1.77c-2.58-.07-5.44-.13-8-.13s-5.51.06-8.09.13V85c3.6,0,4.89-.4,4.89-3.4,0-5.09-.47-12.85-.74-22.43h-.14l-12.85,28h-.95l-12.92-27h-.14c-.47,6.59-1.29,18.9-1.29,21,0,2.72,1.77,3.8,5.24,3.8v1.77c-2,0-4-.13-6-.13-2.25,0-4.76.06-7,.13V85c4.56,0,5.1-1.56,5.31-4.55l1.29-17.68c.2-2.65.27-3.94.27-5.64s-1.09-1.91-5-1.91V53.43c2,0,4,.13,6,.13,1.36,0,3-.13,4.28-.13l12.31,25Z"/><path class="cls-1" d="M431.07,58.19c0-2.59-1.84-3-5-3V53.43c2.58.07,5.23.13,7.82.13s5.57-.06,8.09-.13v1.76c-3.2,0-5,.41-5,3V82c0,2.59,1.83,3,5,3v1.77c-2.52-.07-5.37-.13-8.09-.13s-5.24.06-7.82.13V85c3.19,0,5-.4,5-3Z"/><path class="cls-1" d="M459.62,58.39c0-3.06-4.08-3.2-5.44-3.2V53.43c1.63.07,3.2.13,4.76.13s3.13-.06,4.56-.13l20.73,24.34V60c0-4.69-1.83-4.76-5.44-4.76V53.43c2.18.07,4.56.13,6.73.13,2,0,4.15-.06,6.12-.13v1.76c-3.19,0-4.69.14-4.69,3.54V87.56h-1.63l-23-26.79V78.92c0,4.9.68,6,5.78,6v1.77c-2.24-.07-4.83-.13-7.14-.13s-4.62.06-6.93.13V85c5.57,0,5.57-2.78,5.57-7.68Z"/><path class="cls-1" d="M508.77,58.19c0-2.59-1.83-3-5-3V53.43c2.59.07,5.24.13,7.82.13s5.58-.06,8.09-.13v1.76c-3.19,0-5,.41-5,3V82c0,2.59,1.84,3,5,3v1.77c-2.51-.07-5.37-.13-8.09-.13s-5.23.06-7.82.13V85c3.2,0,5-.4,5-3Z"/><path class="cls-1" d="M534.13,78.51h1.56c1.36,4.76,3.47,7.28,8.43,7.28,5.24,0,6.46-3.54,6.46-5.64,0-2.79-1.56-4.56-6.12-6.94C537,69.34,535,66.75,535,61.45c0-4.62,4-8.84,9.93-8.84,2.58,0,5.78.61,8,.68l.61,6.66h-1.42c-.75-2.72-2.25-5.57-6.73-5.57-3.54,0-5.92,2.31-5.92,5.44s1,4.55,7.55,7.75c7.2,3.53,8.56,6.39,8.56,10.67,0,5.44-5,9.32-12,9.32a19.19,19.19,0,0,1-8.43-1.84Z"/><path class="cls-1" d="M580.83,55.6h-5.16c-4.15,0-5,.55-6.12,5.17h-1.77l1-9h1.36c0,1.29,1.57,1.63,3,1.63h21.69c1.57,0,2.38,0,3.61-1.63h1.36l-.69,9h-1.83c-.41-4.35-1-5.17-3.74-5.17h-6.8V82c0,2.59,1.84,3,5.44,3v1.77c-2.92-.07-5.78-.13-8.5-.13s-5.23.06-8.22.13V85c3.6,0,5.43-.4,5.43-3Z"/><path class="cls-1" d="M400.64,142c-4.62,1.43-6.32,2.24-11.22,2.24-12,0-19-7.48-19-17.47,0-10.74,8.3-17.47,18.63-17.47,5.58,0,6.73,1.63,12.24,1.83l.41,7.89h-1.57c0-1.57-2-7.55-10.13-7.55-5.91,0-13.32,3.54-13.32,14.35,0,7.75,5,16.25,13.05,16.25,4.62,0,8.23-1.57,10.4-8l1.77.21Z"/><path class="cls-1" d="M434.83,109.27c11,0,18.22,7.47,18.22,17.26,0,8.43-7,17.68-18.69,17.68-11.22,0-18.63-7.21-18.63-17.61C415.73,115.93,424.84,109.27,434.83,109.27Zm.28,32.77c8.56,0,11.28-7.48,11.28-14.83,0-9.51-5.37-15.77-12.58-15.77-8.15,0-11.42,7.14-11.42,14.48C422.39,135,428,142,435.11,142Z"/><path class="cls-1" d="M473.18,114.84c0-2.58-1.84-3-5-3v-1.77c2.58.07,5.23.14,7.81.14s5.58-.07,8.1-.14v1.77c-3,0-5,.2-5,3v22.64c0,2.86.89,3.74,6.26,3.74,6.05,0,7.55-.95,10.06-6.46H497l-2,8.64c-1.77-.07-10.61-.14-12.58-.14-4.76,0-9.52.07-14.27.14v-1.77c3.19,0,5-.41,5-3Z"/><path class="cls-1" d="M514,114.84c0-2.58-1.84-3-5-3v-1.77c2.58.07,5.23.14,7.82.14s5.57-.07,8.08-.14v1.77c-3,0-5,.2-5,3v22.64c0,2.86.89,3.74,6.26,3.74,6,0,7.55-.95,10.06-6.46h1.7l-2,8.64c-1.77-.07-10.6-.14-12.58-.14-4.76,0-9.51.07-14.27.14v-1.77c3.19,0,5-.41,5-3Z"/><path class="cls-1" d="M567.34,141.63h.81c1.7,0,3.4-.48,3.4-1.63a5.73,5.73,0,0,0-.54-2.25l-2.52-6.86H556.93l-1.49,4.41a20.21,20.21,0,0,0-1.16,4.42c0,1.64,2.25,1.91,3.54,1.91h.81v1.77c-2.31-.07-4.62-.14-6.93-.14-1.77,0-3.74.07-5.58.14v-1.77c3.47,0,4.49-1.43,5-2.86L560.88,114a6.94,6.94,0,0,0,.68-2.25,4.45,4.45,0,0,0-.14-.95l5.24-2,10.19,28.83c1.09,3.12,2.11,4,5.72,4v1.77c-2.59-.07-5.1-.14-7.62-.14s-5.1.07-7.61.14ZM562.85,115h-.14l-5,13.73h10Z"/><path class="cls-1" d="M598.4,114.84c0-2.58-1.83-3-5-3v-1.77c2.79.07,5.58.14,8.37.14,2.38,0,4.75-.14,7.07-.14,4.14,0,11.69.34,11.69,7.28,0,5.23-3.94,6.52-8.43,7.61v.14c6.93.61,11.76,2.31,11.76,9.11,0,5.3-4.83,9.18-12.78,9.18-2.58,0-6-.14-8.91-.14s-6,.07-8.77.14v-1.77c3.2,0,5-.41,5-3Zm5.85,9.52H607c5.1,0,7.61-2.92,7.61-6.46,0-5.64-4.82-5.64-6.93-5.64-1.43,0-2.65.13-3.47.2Zm0,14.34c0,2.52,2.93,2.52,5.24,2.52,3.4,0,8.09-.48,8.09-6.87,0-6.66-5.71-7.82-9.52-7.82h-3.81Z"/><path class="cls-1" d="M657.76,109.27c11,0,18.22,7.47,18.22,17.26,0,8.43-7,17.68-18.7,17.68-11.22,0-18.63-7.21-18.63-17.61C638.65,115.93,647.76,109.27,657.76,109.27ZM658,142c8.56,0,11.28-7.48,11.28-14.83,0-9.51-5.37-15.77-12.57-15.77-8.16,0-11.43,7.14-11.43,14.48C645.31,135,650.89,142,658,142Z"/><path class="cls-1" d="M694.33,114.84c0-2.58-1.84-3-5-3v-1.77c2.58.07,5.23.14,7.82.14,3.26,0,7.82-.14,10.13-.14,5.64,0,10.26,2.79,10.26,8.23,0,3.87-2.58,6.46-7.27,8,7.27,12.65,9,14.28,13.39,15.3v1.77c-1.29-.07-2.79-.14-4.08-.14-1.49,0-2.92.07-4.42.14-2.65-3-6.86-10-10.4-15.78-.68.07-1.56.14-2.24.14s-1.63-.07-2.31-.14v11c0,2.78,2,3,5,3v1.77c-2.52-.07-5.37-.14-8.09-.14s-5.24.07-7.82.14v-1.77c3.19,0,5-.41,5-3Zm8.36,10.74c5.71,0,9-2.17,9-7.27,0-4.29-3-6.46-8.16-6.46-.61,0-2.65.14-3.33.2v13.53Z"/><path class="cls-1" d="M753.27,141.63h.82c1.7,0,3.4-.48,3.4-1.63a5.75,5.75,0,0,0-.55-2.25l-2.51-6.86H742.87l-1.49,4.41a19.66,19.66,0,0,0-1.16,4.42c0,1.64,2.24,1.91,3.54,1.91h.81v1.77c-2.31-.07-4.62-.14-6.93-.14-1.77,0-3.74.07-5.58.14v-1.77c3.47,0,4.49-1.43,5-2.86L746.81,114a6.94,6.94,0,0,0,.68-2.25,4.43,4.43,0,0,0-.13-.95l5.23-2,10.2,28.83c1.09,3.12,2.11,4,5.71,4v1.77c-2.58-.07-5.1-.14-7.61-.14s-5.1.07-7.62.14ZM748.79,115h-.14l-5,13.73h10Z"/><path class="cls-1" d="M788.84,112.26h-5.17c-4.14,0-5,.54-6.12,5.16h-1.76l1-9h1.36c0,1.29,1.56,1.63,3,1.63h21.69c1.56,0,2.38,0,3.6-1.63h1.36l-.68,9h-1.83c-.41-4.35-1-5.16-3.74-5.16h-6.8v26.38c0,2.58,1.83,3,5.44,3v1.77c-2.93-.07-5.78-.14-8.5-.14s-5.24.07-8.23.14v-1.77c3.6,0,5.44-.41,5.44-3Z"/><path class="cls-1" d="M823.92,114.84c0-2.58-1.83-3-5-3v-1.77c2.58.07,5.23.14,7.82.14s5.57-.07,8.09-.14v1.77c-3.2,0-5,.41-5,3v23.8c0,2.58,1.83,3,5,3v1.77c-2.52-.07-5.37-.14-8.09-.14s-5.24.07-7.82.14v-1.77c3.2,0,5-.41,5-3Z"/><path class="cls-1" d="M850.5,115c-1-2.51-1.43-3.19-4.62-3.19v-1.77c2.31.07,4.76.14,7.14.14s5-.07,7.54-.14v1.77h-1.63c-1.56,0-2.45.41-2.45,1.63a5.92,5.92,0,0,0,.48,1.77l8.77,21.69,8-20.33a7.67,7.67,0,0,0,.75-3c0-1.77-2.11-1.77-4.49-1.77v-1.77c2.18.07,4.49.14,6.67.14,1.63,0,3.46-.07,5.1-.14v1.77c-2.18,0-2.93,0-4.7,4.21l-12,28.15h-2.38Z"/><path class="cls-1" d="M919.78,143.4c-4.9-.07-9.72-.14-14.62-.14-4.35,0-8.77.07-13.12.14v-1.77c3.2,0,5-.41,5-3v-23.8c0-2.58-1.83-3-5-3v-1.77c3.06.07,6.12.14,9.18.14,5.57,0,11.22-.07,16.72-.14l.41,7.21h-1.43c-.81-4.62-2-5-9-5h-5v12.85h5.64c3.4,0,4.9-.07,4.9-4.76h1.76c-.06,1.77-.13,3.6-.13,5.44s.07,3.74.13,5.64h-1.76c0-3.74-.89-4.15-4.9-4.15h-5.64v9.93c0,2.92,1.63,4,7.27,4,6.87,0,7.35-.88,10-5.37h1.7Z"/></svg>