<?xml version="1.0" encoding="UTF-8" standalone="no"?>
<svg
   xmlns:dc="http://purl.org/dc/elements/1.1/"
   xmlns:cc="http://creativecommons.org/ns#"
   xmlns:rdf="http://www.w3.org/1999/02/22-rdf-syntax-ns#"
   xmlns:svg="http://www.w3.org/2000/svg"
   xmlns="http://www.w3.org/2000/svg"
   xmlns:sodipodi="http://sodipodi.sourceforge.net/DTD/sodipodi-0.dtd"
   xmlns:inkscape="http://www.inkscape.org/namespaces/inkscape"
   id="Layer_1"
   data-name="Layer 1"
   viewBox="0 0 1104.27 470.80261"
   version="1.1"
   sodipodi:docname="fenomenal-funds-logo-alt.svg"
   width="1104.27"
   height="470.80261"
   inkscape:version="1.0.2 (e86c870879, 2021-01-15)">
  <metadata
     id="metadata1096">
    <rdf:RDF>
      <cc:Work
         rdf:about="">
        <dc:format>image/svg+xml</dc:format>
        <dc:type
           rdf:resource="http://purl.org/dc/dcmitype/StillImage" />
        <dc:title></dc:title>
      </cc:Work>
    </rdf:RDF>
  </metadata>
  <sodipodi:namedview
     pagecolor="#ffffff"
     bordercolor="#666666"
     borderopacity="1"
     objecttolerance="10"
     gridtolerance="10"
     guidetolerance="10"
     inkscape:pageopacity="0"
     inkscape:pageshadow="2"
     inkscape:window-width="1920"
     inkscape:window-height="1050"
     id="namedview1094"
     showgrid="false"
     fit-margin-top="0"
     fit-margin-left="0"
     fit-margin-right="0"
     fit-margin-bottom="0"
     inkscape:zoom="0.69826087"
     inkscape:cx="551"
     inkscape:cy="184.47261"
     inkscape:window-x="0"
     inkscape:window-y="0"
     inkscape:window-maximized="1"
     inkscape:current-layer="Layer_1" />
  <defs
     id="defs1029">
    <style
       id="style1027">.cls-1{fill:#fff;}</style>
  </defs>
  <path
     class="cls-1"
     d="m 88.52,20.412608 q -7.22,0 -10.69,4 a 14.22,14.22 0 0 0 -3.48,9.7 q 0,9.45 5,13.3 a 19.31,19.31 0 0 0 12.16,3.81 14.31,14.31 0 0 0 11.56,-5.23 19.69,19.69 0 0 0 4.85,-10.94 q 0,-9.45 -3.61,-16 A 29.94,29.94 0 0 0 94.24,8.2226084 a 46.29,46.29 0 0 0 -15.54,-6.22 94,94 0 0 0 -20,-2.00000004 q -16.41,0 -24.86,5.60000004 -8.45,5.5999996 -11.96,12.3199996 a 35.69,35.69 0 0 0 -4,17.91 v 58.39 H 0 v 4.23 H 17.9 V 252.16261 a 38.89,38.89 0 0 1 -0.37,4.23 18,18 0 0 1 -2.11,6.21 17.8,17.8 0 0 1 -5,5.72 c -2.15,1.66 -5.06,2.49 -8.7,2.49 h 70.39 q -5.48,0 -8.7,-2.49 a 16.45,16.45 0 0 1 -4.85,-5.72 21.85,21.85 0 0 1 -2.11,-6.21 28.74,28.74 0 0 1 -0.5,-4.23 V 98.492608 h 22.38 v -4.27 H 56 v -58.39 a 68.82,68.82 0 0 1 0.74,-15.92 33.24,33.24 0 0 1 4.36,-10.9399996 q 3.11,-5 9.57,-5 a 35.46,35.46 0 0 1 14,2.61 29,29 0 0 1 9.07,5.5999996 c 2,2 2.65,3.85 2,5.59 -0.65,1.74 -3.08,2.64 -7.22,2.64 z"
     id="path1031"
     style="fill:#ffffff" />
  <path
     class="cls-1"
     d="m 347,204.67261 a 70.89,70.89 0 0 0 21.63,14.17 67.08,67.08 0 0 0 26.48,5.22 68,68 0 0 0 26.61,-5.22 70.61,70.61 0 0 0 21.75,-14.17 65.84,65.84 0 0 0 14.68,-21 64.71,64.71 0 0 0 0,-51.48 66,66 0 0 0 -14.68,-21 70.43,70.43 0 0 0 -21.75,-14.170002 68,68 0 0 0 -26.61,-5.22 67.08,67.08 0 0 0 -26.48,5.22 70.71,70.71 0 0 0 -21.63,14.200002 66,66 0 0 0 -14.68,21 64.71,64.71 0 0 0 0,51.48 65.84,65.84 0 0 0 14.68,20.97 z m 17,-70.62 a 69.53,69.53 0 0 1 6.09,-19 35.34,35.34 0 0 1 10.32,-12.68 24,24 0 0 1 14.67,-4.600002 20.46,20.46 0 0 1 12.68,4.600002 42,42 0 0 1 10.57,12.68 75.65,75.65 0 0 1 7.34,19 105.72,105.72 0 0 1 0,47.74 75.13,75.13 0 0 1 -7.34,19 41.75,41.75 0 0 1 -10.57,12.68 20.4,20.4 0 0 1 -12.68,4.6 23.94,23.94 0 0 1 -14.67,-4.6 35.16,35.16 0 0 1 -10.32,-12.68 69.12,69.12 0 0 1 -6.09,-19 144.16,144.16 0 0 1 0,-47.74 z"
     id="path1033"
     style="fill:#ffffff" />
  <path
     class="cls-1"
     d="m 1043.48,210.63261 q 4.59,-6.45 4.6,-18.4 a 25.73,25.73 0 0 1 -3.11,12.93 q -3.12,5.47 -7,7 -3.88,1.53 -7,-2 -3.11,-3.48 -3.11,-13.93 v -67.65 c 0,-1.33 0,-3.15 -0.12,-5.47 a 27.61,27.61 0 0 0 -1.49,-7.59 27.57,27.57 0 0 0 -14.18,-15.910002 66.47,66.47 0 0 0 -16.16,-5.6 111.4,111.4 0 0 0 -24.24,-2.23 55.36,55.36 0 0 0 -29.47,8.950002 40.8,40.8 0 0 0 -10.44,9.82 20.31,20.31 0 0 0 -4.1,12.31 18.88,18.88 0 0 0 18.65,18.9 20.54,20.54 0 0 0 13.55,-5.72 17.65,17.65 0 0 0 5.34,-13.18 18.48,18.48 0 0 0 -5.47,-13.18 17.86,17.86 0 0 0 -13.42,-5.72 q -5,0 -4.23,-1.12 c 0.5,-0.74 1.9,-1.53 4.23,-2.36 a 73.12,73.12 0 0 1 8.33,-2.360002 38.43,38.43 0 0 1 8.57,-1.12 q 10.2,0 15.67,3.850002 a 22.61,22.61 0 0 1 7.83,9.08 30.41,30.41 0 0 1 2.74,10.44 q 0.38,5.22 0.37,8.21 v 3.48 a 10.08,10.08 0 0 1 -3,6.71 19.46,19.46 0 0 1 -7.09,4.48 q -4.85,2 -14.05,2 a 61.43,61.43 0 0 0 -23.62,4.22 38.08,38.08 0 0 0 -8.58,4.73 36.91,36.91 0 0 0 -7.46,7.33 34.64,34.64 0 0 0 -5.35,10.45 45.13,45.13 0 0 0 -2,14.05 41.64,41.64 0 0 0 2,13.67 c 0.07,0.2 0.15,0.37 0.22,0.56 a 22.56,22.56 0 0 1 -2.08,5.16 q -3.1,5.47 -7,7 -3.9,1.53 -7,-2 -3.12,-3.48 -3.11,-13.93 v -72.64 q 0,-11.92 -5.85,-18.52 a 35.67,35.67 0 0 0 -13,-9.580002 54.63,54.63 0 0 0 -18.9,-4 68.31,68.31 0 0 0 -12.93,1.74 49.49,49.49 0 0 0 -11.02,4.13 31.38,31.38 0 0 0 -9.94,7.830002 V 94.222608 h -51.48 v 0.16 a 12.93,12.93 0 0 1 6.79,2.58 16.83,16.83 0 0 1 4.85,6.000002 24.85,24.85 0 0 1 2,8.7 v 126.56 a 25.43,25.43 0 0 1 -2,9 15.32,15.32 0 0 1 -4.85,6.09 q -3.36,2.61 -9.57,2.61 h 70.62 q -6.23,0 -9.58,-2.61 a 15.5,15.5 0 0 1 -4.84,-6.09 25.21,25.21 0 0 1 -2,-9 v -129.54 q 9.43,-6.45 16.9,-7.46 a 17.49,17.49 0 0 1 6.22,0.13 10.85,10.85 0 0 1 5.47,3.11 17.41,17.41 0 0 1 4,7.21 41.49,41.49 0 0 1 1.49,12.18 v 72.61 q 0,10.44 4.48,15.91 a 30.55,30.55 0 0 0 9.94,8.21 40.05,40.05 0 0 0 14.43,3.48 34.58,34.58 0 0 0 14.42,-4 31.17,31.17 0 0 0 10.07,-9.32 23.88,23.88 0 0 0 3.87,-9.74 32.59,32.59 0 0 0 12.29,15.58 35.65,35.65 0 0 0 8.58,4.23 q 10.19,3.74 23.62,3.23 a 22,22 0 0 0 10.57,-2.48 31.57,31.57 0 0 0 7.71,-5.72 31.94,31.94 0 0 0 4.85,-6.35 43.73,43.73 0 0 0 2.23,-4.35 q 2,7.21 6.59,11.07 a 31.7,31.7 0 0 0 9.33,5.59 30.37,30.37 0 0 0 11.68,2.24 35.1,35.1 0 0 0 14.68,-4 30.7,30.7 0 0 0 10.06,-9.41 z m -53.59,-10.41 a 21.63,21.63 0 0 1 -1.62,6.09 25.74,25.74 0 0 1 -3.73,6.34 27.32,27.32 0 0 1 -5.22,5.1 10.07,10.07 0 0 1 -6.09,2.11 q -4.72,-0.5 -8.45,-5 -3.24,-3.74 -5.85,-11.44 -2.61,-7.7 -2.61,-22.63 0,-10.19 2.36,-16.16 a 26,26 0 0 1 5.85,-9.32 22.67,22.67 0 0 1 7.71,-5 c 2.81,-1.07 5.47,-2.15 8,-3.23 a 23.11,23.11 0 0 0 6.47,-4.1 c 1.82,-1.66 3,-4.14 3.48,-7.46 z"
     id="path1035"
     style="fill:#ffffff" />
  <path
     class="cls-1"
     d="m 1095.44,218.59261 a 14,14 0 0 1 -4.35,-5.47 18.12,18.12 0 0 1 -1.74,-8.2 V 4.9926084 h -49.48 c 3.81,0 6.71,0.88 8.7,2.62 a 18.43,18.43 0 0 1 4.48,5.5899996 22.22,22.22 0 0 1 2,8.21 V 204.92261 a 20.66,20.66 0 0 1 -2,8.2 17.14,17.14 0 0 1 -4.48,5.47 q -3,2.49 -8.7,2.49 h 64.4 c -3.81,0 -6.76,-0.86 -8.83,-2.49 z"
     id="path1037"
     style="fill:#ffffff" />
  <path
     class="cls-1"
     d="m 350.58,245.22261 q -7.21,0 -10.7,4 a 14.24,14.24 0 0 0 -3.48,9.7 q 0,9.45 5,13.31 a 19.26,19.26 0 0 0 12.18,3.85 14.29,14.29 0 0 0 11.56,-5.22 19.65,19.65 0 0 0 4.86,-10.92 q 0,-9.45 -3.6,-16 a 30.15,30.15 0 0 0 -10.07,-10.82 46.42,46.42 0 0 0 -15.55,-6.21 90.52,90.52 0 0 0 -17.78,-1.98 h 0.05 a 3.21,3.21 0 0 1 -3.06,-3.45 v -97.6 q 0,-11.92 -5.84,-18.52 a 35.78,35.78 0 0 0 -13.06,-9.580002 54.63,54.63 0 0 0 -18.9,-4 68.31,68.31 0 0 0 -12.93,1.74 49.84,49.84 0 0 0 -11.19,4.1 31.38,31.38 0 0 0 -9.94,7.830002 V 94.222608 H 194 c 4.14,0 7.34,0.92 9.57,2.74 a 16.83,16.83 0 0 1 4.85,6.000002 24.85,24.85 0 0 1 2,8.7 v 91.76 c -0.17,3.32 -0.83,23.71 -2,26.36 a 15.32,15.32 0 0 1 -4.85,6.09 c -2.23,1.74 -5.43,2.61 -9.57,2.61 h 70.62 q -6.22,0 -9.57,-2.61 a 15.32,15.32 0 0 1 -4.85,-6.09 c -1.16,-2.65 -1.83,-23 -2,-26.36 v -94.74 c 6.3,-4.3 9.67,-6.79 14.64,-7.46 a 17.49,17.49 0 0 1 6.22,0.13 10.85,10.85 0 0 1 5.47,3.11 17.64,17.64 0 0 1 4,7.21 41.49,41.49 0 0 1 1.47,12.18 v 122.37 c 0,0.27 0,0.51 0.05,0.77 v 10.34 c -0.06,1.11 -0.09,2.23 -0.06,3.38 v 58.41 h -17.94 v 4.22 H 280 v 128.81 a 39.64,39.64 0 0 1 -0.38,4.23 17.67,17.67 0 0 1 -2.11,6.21 18,18 0 0 1 -5,5.72 q -3.24,2.49 -8.7,2.49 h 70.37 c -3.65,0 -6.56,-0.83 -8.71,-2.49 a 16.65,16.65 0 0 1 -4.85,-5.72 22,22 0 0 1 -2.11,-6.21 30.22,30.22 0 0 1 -0.5,-4.23 v -128.81 h 22.38 v -4.22 H 318 v -58.44 a 69.22,69.22 0 0 1 0.75,-15.91 33.26,33.26 0 0 1 4.35,-10.94 q 3.11,-5 9.57,-5 a 35.39,35.39 0 0 1 14.05,2.61 29.25,29.25 0 0 1 9.08,5.6 q 3,3 2,5.59 c -0.68,1.77 -3.08,2.59 -7.22,2.59 z"
     id="path1039"
     style="fill:#ffffff" />
  <path
     class="cls-1"
     d="m 729,244.89261 a 16.47,16.47 0 0 1 7.12,-10.67 14.55,14.55 0 0 1 8.32,-2.11 H 690 v 78.11 a 40.58,40.58 0 0 0 -2.36,-6.59 23.75,23.75 0 0 0 -4.6,-6.72 26.06,26.06 0 0 0 -7.71,-5.34 27.11,27.11 0 0 0 -11.69,-2.24 60.06,60.06 0 0 0 -19.52,2.86 48.73,48.73 0 0 0 -24.62,18.15 59.91,59.91 0 0 0 -6.59,12.06 q -6.21,14.42 -6.21,32.82 0.24,18.65 5.72,33.32 a 59.28,59.28 0 0 0 5.05,10.49 21.56,21.56 0 0 1 -1.69,3.93 q -3.12,5.47 -7,7 -3.88,1.53 -7,-2 -3.11,-3.48 -3.1,-13.93 v -72.6 q 0,-11.94 -5.85,-18.53 a 35.8,35.8 0 0 0 -13,-9.57 54.68,54.68 0 0 0 -18.9,-4 68.31,68.31 0 0 0 -12.93,1.69 50,50 0 0 0 -11.19,4.1 31.41,31.41 0 0 0 -10,7.83 v -11.19 h -51.55 v 0.16 a 13,13 0 0 1 7,2.58 17,17 0 0 1 4.85,6 24.85,24.85 0 0 1 2,8.7 v 91.76 a 25.43,25.43 0 0 1 -2,8.95 15.41,15.41 0 0 1 -4.85,6.09 11.62,11.62 0 0 1 -4.14,2 10.73,10.73 0 0 1 -4.19,-2.09 16.76,16.76 0 0 1 -4.72,-6.22 25,25 0 0 1 -2,-8.95 v -108.98 h -51.1 v 0.13 a 14.41,14.41 0 0 1 6.58,2 13.48,13.48 0 0 1 4.72,5 17.13,17.13 0 0 1 1.87,5.72 35.73,35.73 0 0 1 0.37,4.1 v 96 q -9.45,6.46 -16.91,7.46 a 17.21,17.21 0 0 1 -6.21,-0.13 10.49,10.49 0 0 1 -5.35,-3 17.18,17.18 0 0 1 -3.85,-7.09 41.11,41.11 0 0 1 -1.5,-12.18 v -98 h -50.54 v 0.18 a 14.24,14.24 0 0 1 6.28,1.94 13.59,13.59 0 0 1 4.73,5 15.38,15.38 0 0 1 1.74,5.72 c 0.16,1.91 0.33,3.27 0.49,4.1 v 81.07 q 0,11.93 5.72,18.4 a 35.12,35.12 0 0 0 12.93,9.44 53.81,53.81 0 0 0 18.65,4 67.83,67.83 0 0 0 12.69,-1.74 58.29,58.29 0 0 0 11.06,-4 28.41,28.41 0 0 0 10.07,-8 v 10.69 h 113.63 q -6.21,0 -9.57,-2.61 a 15.41,15.41 0 0 1 -4.85,-6.09 25.43,25.43 0 0 1 -2,-8.95 v -94.7 q 9.45,-6.47 16.91,-7.46 a 17.5,17.5 0 0 1 6.22,0.12 10.85,10.85 0 0 1 5.47,3.11 17.64,17.64 0 0 1 4,7.21 41.51,41.51 0 0 1 1.49,12.19 v 72.6 q 0,10.46 4.47,15.92 a 30.68,30.68 0 0 0 10,8.2 40,40 0 0 0 14.42,3.48 34.48,34.48 0 0 0 14.43,-4 31.17,31.17 0 0 0 10.01,-9.37 23.12,23.12 0 0 0 3.62,-8.57 c 0.2,0.33 0.39,0.66 0.6,1 a 44.83,44.83 0 0 0 22.75,18 51.3,51.3 0 0 0 17.91,2.86 q 9.2,0 14.91,-3.23 a 27.36,27.36 0 0 0 9,-7.71 33.25,33.25 0 0 0 4.72,-8.95 c 1,-3 1.74,-5.38 2.24,-7.21 v 24.12 h 54.45 q -6.21,0 -9.44,-3 a 18.43,18.43 0 0 1 -4.73,-6.72 28.91,28.91 0 0 1 -2,-9.7 v -149.89 c 0.14,-1 0.38,-2.42 0.69,-4.33 z m -39,140.87 q -3.24,14.16 -9.2,22.87 -5.96,8.71 -13.43,8.71 a 17.71,17.71 0 0 1 -9.82,-3 q -4.6,-3 -8.08,-10.07 -3.48,-7.07 -5.47,-19.14 a 188,188 0 0 1 -2,-30 185.9,185.9 0 0 1 2,-29.84 q 2,-11.92 5.47,-19 3.47,-7.08 8.08,-9.95 a 18.31,18.31 0 0 1 9.82,-2.85 19.37,19.37 0 0 1 13.43,5.47 q 6,5.46 9.2,19.64 z"
     id="path1041"
     style="fill:#ffffff" />
  <path
     class="cls-1"
     d="m 827.49,353.93261 -36.3,-31.33 a 45.18,45.18 0 0 1 -9.08,-9.95 q -3.86,-5.71 -3.85,-10.57 0.01,-4.86 5,-7.83 5,-3 17.41,-2 a 43.42,43.42 0 0 1 11.81,2.86 30.32,30.32 0 0 1 8.58,5.22 32.67,32.67 0 0 1 5.84,6.84 34.94,34.94 0 0 1 3.61,7.46 54.7,54.7 0 0 1 2.49,19.9 h 2.24 l 0.25,-44 h -1 a 7.86,7.86 0 0 1 -3.36,5.35 6.68,6.68 0 0 1 -3.61,0.87 11.19,11.19 0 0 1 -4.35,-1 q -2.37,-1 -5.59,-2.23 c -2.16,-0.83 -4.6,-1.62 -7.34,-2.37 a 56.41,56.41 0 0 0 -9.57,-1.61 63.46,63.46 0 0 0 -21.26,1.49 50.78,50.78 0 0 0 -16.91,7.46 34,34 0 0 0 -10.82,12.06 25.67,25.67 0 0 0 -2.86,15 q 0.87,8 7.09,16.54 6.22,8.54 18.9,16.78 l 21.13,15.92 q 8.21,5.22 11.32,12.8 a 22,22 0 0 1 1.24,14.42 21.54,21.54 0 0 1 -8.33,11.69 q -6.46,4.85 -17.16,4.85 a 32.39,32.39 0 0 1 -11.19,-1.74 25.21,25.21 0 0 1 -8.08,-4.72 28.78,28.78 0 0 1 -5.59,-6.72 35.17,35.17 0 0 1 -3.48,-7.71 60.25,60.25 0 0 1 -2.49,-21.13 h -2.24 l -0.25,44 h 1 a 6.08,6.08 0 0 1 1.24,-3 7.77,7.77 0 0 1 2.11,-2.23 6,6 0 0 1 3.61,-1 10,10 0 0 1 4.1,1.12 c 1.58,0.75 3.48,1.58 5.72,2.49 a 56.45,56.45 0 0 0 8,2.48 47.1,47.1 0 0 0 11.06,1.12 q 23.13,0 36.06,-7.46 12.93,-7.46 17.28,-18.15 a 32.53,32.53 0 0 0 0.87,-22.25 41,41 0 0 0 -13.25,-19.72 z"
     id="path1043"
     style="fill:#ffffff" />
  <path
     class="cls-1"
     d="m 185.5,197.83261 a 48,48 0 0 1 -10.57,12.06 39.9,39.9 0 0 1 -15.29,7.83 27.13,27.13 0 0 1 -9.14,0.84 37.65,37.65 0 0 1 -10,-2.21 19,19 0 0 1 -9.5,-7.33 50.62,50.62 0 0 1 -6,-11.94 75,75 0 0 1 -3.48,-13.67 q -1.12,-7.1 -1.49,-13.18 -0.37,-6.08 -0.38,-9.95 v -4.06 h 82.56 a 92.48,92.48 0 0 0 -8.7,-32.08 69.15,69.15 0 0 0 -7.59,-11.81 52.61,52.61 0 0 0 -26.23,-17.780002 66.47,66.47 0 0 0 -19.89,-2.73 55.45,55.45 0 0 0 -42,18.650002 63.85,63.85 0 0 0 -12.06,20.51 73.17,73.17 0 0 0 -4.35,25.49 q 0,18.9 5,31.82 5,12.92 13.06,20.89 a 47.27,47.27 0 0 0 18.55,11.4 69.86,69.86 0 0 0 22,3.48 63.51,63.51 0 0 0 19.9,-2.73 47.69,47.69 0 0 0 13.8,-7 40.1,40.1 0 0 0 8.95,-9.07 43.73,43.73 0 0 0 5,-9.08 c 0.34,-0.89 0.67,-1.86 1,-2.85 l -0.58,-0.24 a 50.12,50.12 0 0 1 -2.57,4.74 z m -65.52,-63 a 84.56,84.56 0 0 1 2.61,-18 36.85,36.85 0 0 1 7.21,-14.61 q 5,-6.000002 13.92,-6.000002 8.92,0 13.93,6.000002 a 37,37 0 0 1 7.21,14.55 84.56,84.56 0 0 1 2.61,18 q 0.38,9.45 0.37,16.17 H 119.6 q 0,-6.72 0.4,-16.15 z"
     id="path1045"
     style="fill:#ffffff" />
  <path
     class="cls-1"
     d="m 469.71,102.72261 a 22.17,22.17 0 0 1 2,8.2 v 95.74 a 23.29,23.29 0 0 1 -2,8.7 15.41,15.41 0 0 1 -4.85,6.09 13.78,13.78 0 0 1 -7.42,2.49 v 0.12 h 51.8 v -116.37 c 0.5,-0.33 1.7,-1.08 3.61,-2.24 a 37.77,37.77 0 0 1 6.59,-3.11 35.37,35.37 0 0 1 7.83,-1.86 12.49,12.49 0 0 1 7.59,1.37 q 3.46,1.86 5.71,6.83 2.25,4.97 2.24,14.43 v 115.62 a 23,23 0 0 1 -2,8.7 15.84,15.84 0 0 1 -4.85,5.85 13.3,13.3 0 0 1 -6.88,2.47 v 0.14 h 65.12 v -0.13 a 13.07,13.07 0 0 1 -7.13,-2.48 16.34,16.34 0 0 1 -4.72,-5.85 23,23 0 0 1 -2,-8.7 v -115.62 a 33.7,33.7 0 0 0 -1,-8.71 25.89,25.89 0 0 0 -3,-7 q 1.74,-1 4.73,-2.61 a 35.49,35.49 0 0 1 6.59,-2.73 24.42,24.42 0 0 1 7.33,-1.12 11.29,11.29 0 0 1 6.71,2.11 15.46,15.46 0 0 1 5,7 q 2,4.86 2,13.55 v 73.11 q 0,10.44 4.47,15.79 a 31.16,31.16 0 0 0 10,8.08 40,40 0 0 0 14.42,3.48 34.58,34.58 0 0 0 14.42,-4 29.9,29.9 0 0 0 9.95,-9.32 q 3.92,-5.57 4.41,-15.42 a 52.87,52.87 0 0 0 9.88,13.8 47.41,47.41 0 0 0 18.65,11.44 69.93,69.93 0 0 0 22,3.48 63.45,63.45 0 0 0 19.89,-2.73 47.69,47.69 0 0 0 13.8,-7 39.9,39.9 0 0 0 9,-9.07 43.82,43.82 0 0 0 5,-9.08 c 0.47,-1.23 0.91,-2.57 1.33,-4 l -0.41,-0.17 a 51.13,51.13 0 0 1 -3,5.78 48,48 0 0 1 -10.56,12.06 40,40 0 0 1 -15.3,7.83 q -8.7,2.37 -19.14,-1.37 a 18.88,18.88 0 0 1 -9.45,-7.33 50.25,50.25 0 0 1 -6.09,-11.94 75.06,75.06 0 0 1 -3.49,-13.67 q -1.11,-7.1 -1.49,-13.18 -0.38,-6.08 -0.37,-9.95 v -4 H 779 a 92.48,92.48 0 0 0 -8.7,-32.08 69.69,69.69 0 0 0 -7.58,-11.81 52.7,52.7 0 0 0 -26.24,-17.780002 66.43,66.43 0 0 0 -19.89,-2.73 55.41,55.41 0 0 0 -42,18.650002 63.85,63.85 0 0 0 -12.06,20.51 73.17,73.17 0 0 0 -4.35,25.49 q 0,18.9 5,31.82 a 71.49,71.49 0 0 0 3.09,6.94 24.59,24.59 0 0 1 -3,10.22 q -3.12,5.47 -7,7.09 -3.88,1.62 -7,-1.87 -3.11,-3.48 -3.11,-13.92 v -73.15 q 0,-11.92 -5.84,-18.4 a 36.37,36.37 0 0 0 -13,-9.450002 54,54 0 0 0 -18.65,-4 63.9,63.9 0 0 0 -12.67,1.77 51,51 0 0 0 -10.95,4.1 31.49,31.49 0 0 0 -9.94,7.830002 28.11,28.11 0 0 0 -9.57,-8.080002 50.69,50.69 0 0 0 -10.57,-4.1 49.86,49.86 0 0 0 -12.19,-1.49 64.37,64.37 0 0 0 -12.68,1.24 59.92,59.92 0 0 0 -10.94,3.85 28.37,28.37 0 0 0 -10,7.590002 V 94.222608 h -53.87 q 6.21,0 9.57,2.61 a 15.94,15.94 0 0 1 4.85,5.890002 z m 227.14,32.07 a 84.56,84.56 0 0 1 2.61,-18 37.11,37.11 0 0 1 7.21,-14.57 q 5,-6.000002 13.93,-6.000002 8.93,0 13.92,6.000002 a 37,37 0 0 1 7.22,14.55 84.56,84.56 0 0 1 2.61,18 q 0.36,9.45 0.37,16.17 h -48.24 q 0,-6.72 0.37,-16.15 z"
     id="path1047"
     style="fill:#ffffff" />
</svg>
