<?xml version="1.0" encoding="UTF-8" standalone="no"?>
<svg
   xmlns:dc="http://purl.org/dc/elements/1.1/"
   xmlns:cc="http://creativecommons.org/ns#"
   xmlns:rdf="http://www.w3.org/1999/02/22-rdf-syntax-ns#"
   xmlns:svg="http://www.w3.org/2000/svg"
   xmlns="http://www.w3.org/2000/svg"
   version="1.1"
   id="Capa_1"
   x="0px"
   y="0px"
   viewBox="0 0 437 437"
   xml:space="preserve"
   width="437"
   height="437"><metadata
   id="metadata939"><rdf:RDF><cc:Work
       rdf:about=""><dc:format>image/svg+xml</dc:format><dc:type
         rdf:resource="http://purl.org/dc/dcmitype/StillImage" /><dc:title></dc:title></cc:Work></rdf:RDF></metadata><defs
   id="defs937" />
<g
   id="g932"
   transform="translate(-37.45,-37.5)">
	<path
   d="m 100.6,102.1 c 7.8,0 14.9,0.7 21.4,2.1 6.5,1.4 12,3.6 16.6,6.6 4.6,3 8.2,6.9 10.8,11.6 2.6,4.7 3.9,10.4 3.9,17.1 -0.4,4.1 -2.1,8 -5.2,11.7 -3.1,3.7 -7.2,5.6 -12.4,5.6 -5.1,0 -9.5,-1.4 -13,-4.1 -3.5,-2.7 -5.3,-7.5 -5.3,-14.2 0,-4.1 1.2,-7.5 3.7,-10.4 2.5,-2.8 6.3,-4.3 11.4,-4.3 4.4,0 7,-0.9 7.7,-2.8 0.7,-1.9 0,-3.9 -2.1,-6 -2.1,-2.1 -5.4,-4.1 -9.7,-6 -4.3,-1.9 -9.3,-2.8 -15,-2.8 -4.6,0 -8,1.8 -10.2,5.3 -2.2,3.5 -3.8,7.4 -4.6,11.7 -0.9,5 -1.2,10.6 -0.8,17 v 62.4 h 23.9 v 4.5 H 97.6 V 390 c 0,0.9 0.2,2.4 0.5,4.5 0.4,2.1 1.1,4.3 2.3,6.6 1.2,2.3 2.9,4.3 5.2,6.1 2.3,1.8 5.4,2.7 9.3,2.7 H 39.7 c 3.9,0 7,-0.9 9.3,-2.7 2.3,-1.8 4.1,-3.8 5.3,-6.1 1.2,-2.3 2,-4.5 2.3,-6.6 0.3,-2.1 0.4,-3.6 0.4,-4.5 V 207.3 H 37.9 v -4.5 H 57 v -62.4 c -0.2,-7.1 1.2,-13.5 4.2,-19.1 2.5,-4.8 6.7,-9.2 12.8,-13.1 6,-4.1 14.9,-6.1 26.6,-6.1 z"
   id="path922"
   style="fill:#ffffff" />
	<path
   d="m 317.1,102.1 c 7.8,0 14.9,0.7 21.4,2.1 6.5,1.4 12,3.6 16.6,6.6 4.6,3 8.2,6.9 10.8,11.6 2.6,4.7 3.9,10.4 3.9,17.1 -0.4,4.1 -2.1,8 -5.2,11.7 -3.1,3.7 -7.2,5.6 -12.4,5.6 -5.1,0 -9.5,-1.4 -13,-4.1 -3.5,-2.7 -5.3,-7.5 -5.3,-14.2 0,-4.1 1.2,-7.5 3.7,-10.4 2.5,-2.8 6.3,-4.3 11.4,-4.3 4.4,0 7,-0.9 7.7,-2.8 0.7,-1.9 0,-3.9 -2.1,-6 -2.1,-2.1 -5.4,-4.1 -9.7,-6 -4.3,-1.9 -9.3,-2.8 -15,-2.8 -4.6,0 -8,1.8 -10.2,5.3 -2.2,3.5 -3.8,7.4 -4.6,11.7 -0.9,5 -1.2,10.6 -0.8,17 v 62.4 h 23.9 v 4.5 H 314.3 V 390 c 0,0.9 0.2,2.4 0.5,4.5 0.4,2.1 1.1,4.3 2.3,6.6 1.2,2.3 2.9,4.3 5.2,6.1 2.3,1.8 5.4,2.7 9.3,2.7 h -75.2 c 3.9,0 7,-0.9 9.3,-2.7 2.3,-1.8 4.1,-3.8 5.3,-6.1 1.2,-2.3 2,-4.5 2.3,-6.6 0.3,-2.1 0.4,-3.6 0.4,-4.5 V 207.3 h -19.1 v -4.5 h 19.1 v -62.4 c -0.2,-7.1 1.2,-13.5 4.2,-19.1 2.5,-4.8 6.7,-9.2 12.8,-13.1 5.9,-4.1 14.7,-6.1 26.4,-6.1 z"
   id="path924"
   style="fill:#ffffff" />
	<g
   id="g928"
   style="fill:#ffffff">
		<path
   d="m 250.8,316.4 c 0,7.8 1.2,12.9 3.5,15.5 2.3,2.6 4.9,3.3 7.8,2.2 2.9,-1.1 5.5,-3.7 7.8,-7.8 2.3,-4.1 3.5,-8.9 3.5,-14.4 0,8.9 -1.7,15.7 -5.1,20.4 -3.4,4.7 -7.2,8.2 -11.2,10.4 -4.8,2.6 -10.2,4.1 -16.1,4.4 -5.9,-0.4 -11.3,-1.7 -16.1,-3.9 -4.1,-2 -7.8,-5.1 -11.1,-9.2 -3.3,-4.1 -5,-10 -5,-17.8 v -81 c 0,-5.5 -0.6,-10.1 -1.7,-13.6 -1.1,-3.5 -2.6,-6.2 -4.4,-8 -1.9,-1.8 -3.9,-3 -6.1,-3.5 -2.2,-0.5 -4.5,-0.5 -6.9,-0.1 -5.5,0.7 -11.8,3.5 -18.9,8.3 V 324 c 0.2,3.7 0.9,7 2.2,10 1.1,2.6 2.9,4.9 5.4,6.8 2.5,1.9 6.1,2.9 10.7,2.9 h -78.8 c 4.6,0 8.2,-1 10.7,-2.9 2.5,-1.9 4.3,-4.2 5.4,-6.8 1.3,-3 2,-6.3 2.2,-10 V 221.8 c -0.2,-3.5 -0.9,-6.8 -2.2,-9.7 -1.1,-2.4 -2.9,-4.6 -5.4,-6.7 -2.5,-2 -6.1,-3.1 -10.7,-3.1 h 60.5 v 12.5 c 3.1,-3.7 6.8,-6.6 11.1,-8.7 4.3,-2.1 8.4,-3.6 12.5,-4.6 4.8,-1.1 9.6,-1.8 14.4,-1.9 8,0.4 15,1.9 21.1,4.4 5.4,2.2 10.2,5.8 14.6,10.7 4.3,4.9 6.5,11.8 6.5,20.7 v 81 z"
   id="path926"
   style="fill:#ffffff" />
	</g>
	<path
   d="m 383,354.2 c -7.3,0 -13.6,-1 -19.1,-3.1 -5.5,-2 -10.2,-4.7 -14.2,-8 -4,-3.3 -7.4,-7 -10.1,-11.3 -2.7,-4.2 -4.9,-8.6 -6.5,-13 -3.9,-10.4 -5.9,-22.3 -6.1,-35.6 0,-13.1 2.2,-24.8 6.6,-35.1 1.8,-4.4 4.1,-8.7 7,-12.9 2.9,-4.2 6.5,-7.9 10.9,-11.3 4.3,-3.4 9.5,-6.1 15.4,-8.1 5.9,-2 12.9,-3.1 20.8,-3.1 5,0 9.1,0.8 12.5,2.4 3.4,1.6 6.1,3.5 8.2,5.7 2.1,2.2 3.8,4.6 4.9,7.2 1.1,2.6 2,4.9 2.5,7 V 155.3 H 474 c -3.7,0 -6.7,0.8 -8.9,2.3 -2.2,1.5 -3.9,3.3 -5.2,5.3 -1.2,2 -2,4.1 -2.4,6.1 -0.4,2 -0.6,3.6 -0.8,4.6 V 330 c 0.2,3.9 0.9,7.3 2.1,10.4 1.1,2.7 2.7,5 5,7.2 2.3,2.1 5.7,3.2 10.1,3.2 H 415.7 V 325 c -0.5,2 -1.3,4.5 -2.4,7.7 -1.1,3.2 -2.7,6.4 -5,9.6 -2.3,3.2 -5.5,5.9 -9.6,8.2 -3.8,2.5 -9.1,3.7 -15.7,3.7 z m -18.3,-70.9 c 0,12.7 0.7,23.4 2.1,32 1.4,8.6 3.4,15.4 5.8,20.5 2.5,5 5.4,8.6 8.6,10.8 3.3,2.1 6.8,3.2 10.5,3.2 5.3,0 10.1,-3.1 14.3,-9.3 4.2,-6.2 7.5,-14.3 9.8,-24.4 v -71.7 c -2.3,-10.1 -5.6,-17.1 -9.8,-21 -4.3,-3.9 -9,-5.8 -14.3,-5.8 -3.7,0 -7.2,1 -10.5,3.1 -3.3,2 -6.2,5.6 -8.6,10.6 -2.5,5 -4.4,11.8 -5.8,20.3 -1.4,8.3 -2.1,18.9 -2.1,31.7 z"
   id="path930"
   style="fill:#ffffff" />
</g>
</svg>
