<?xml version="1.0" encoding="UTF-8" standalone="no"?>
<svg xmlns="http://www.w3.org/2000/svg" version="1.1" id="ff_loading" x="0px" y="0px" viewBox="0 0 1106.3098 710" width="1106.3098" height="710">
<polygon style="fill:#df3827" points="856,856.1 759.6,952.5 764,952.5 860.4,856.1 " id="polygon918" transform="translate(-241.80001,-242.49999)" />
	<g id="g940" transform="translate(-241.80001,-242.49999)">
		<path style="fill:#e4e4e3" d="m 580.5,439.4 c -2.4,0 -4.1,0.7 -5.3,2 -1.1,1.3 -1.7,2.9 -1.7,4.8 0,3.1 0.8,5.3 2.5,6.6 1.6,1.3 3.7,1.9 6,1.9 2.4,0 4.3,-0.9 5.7,-2.6 1.4,-1.7 2.2,-3.5 2.4,-5.4 0,-3.1 -0.6,-5.8 -1.8,-7.9 -1.2,-2.2 -2.9,-4 -5,-5.4 -2.1,-1.4 -4.7,-2.4 -7.7,-3.1 -3,-0.7 -6.3,-1 -9.9,-1 -5.4,0 -9.5,0.9 -12.3,2.8 -2.8,1.8 -4.8,3.9 -5.9,6.1 -1.4,2.6 -2.1,5.6 -2,8.9 V 476 h -8.9 v 2.1 h 8.9 v 76.1 c 0,0.4 -0.1,1.1 -0.2,2.1 -0.1,1 -0.5,2 -1,3.1 -0.6,1.1 -1.4,2 -2.5,2.8 -1.1,0.8 -2.5,1.2 -4.3,1.2 h 34.8 c -1.8,0 -3.2,-0.4 -4.3,-1.2 -1.1,-0.8 -1.9,-1.8 -2.4,-2.8 -0.5,-1.1 -0.9,-2.1 -1,-3.1 -0.2,-1 -0.2,-1.7 -0.2,-2.1 V 478 h 11.1 v -2 h -11.1 v -29 c -0.2,-3 0,-5.6 0.4,-7.9 0.4,-2 1.1,-3.8 2.2,-5.4 1,-1.6 2.6,-2.5 4.7,-2.5 2.6,0 4.9,0.4 7,1.3 2,0.9 3.5,1.8 4.5,2.8 1,1 1.3,1.9 1,2.8 -0.4,0.9 -1.6,1.3 -3.7,1.3 z" id="path922" />
		<path style="fill:#e4e4e3" d="m 708.5,530.6 c 3.1,3 6.6,5.3 10.7,7 4.1,1.7 8.4,2.6 13.1,2.6 4.7,0 9.1,-0.9 13.2,-2.6 4.1,-1.7 7.7,-4.1 10.8,-7 3.1,-3 5.5,-6.4 7.3,-10.4 1.8,-4 2.6,-8.2 2.6,-12.7 0,-4.5 -0.9,-8.8 -2.6,-12.7 -1.8,-4 -4.2,-7.4 -7.3,-10.4 -3.1,-3 -6.7,-5.3 -10.8,-7 -4.1,-1.7 -8.5,-2.6 -13.2,-2.6 -4.7,0 -9,0.9 -13.1,2.6 -4.1,1.7 -7.6,4.1 -10.7,7 -3.1,3 -5.5,6.4 -7.3,10.4 -1.8,4 -2.6,8.2 -2.6,12.7 0,4.5 0.9,8.8 2.6,12.7 1.8,4 4.2,7.4 7.3,10.4 z m 8.4,-35 c 0.7,-3.6 1.7,-6.7 3,-9.4 1.4,-2.7 3.1,-4.8 5.1,-6.3 2,-1.5 4.5,-2.3 7.3,-2.3 2.2,0 4.3,0.8 6.3,2.3 2,1.5 3.7,3.6 5.2,6.3 1.5,2.7 2.7,5.8 3.6,9.4 0.9,3.6 1.4,7.6 1.4,11.8 0,4.3 -0.5,8.2 -1.4,11.8 -0.9,3.6 -2.1,6.8 -3.6,9.4 -1.5,2.7 -3.3,4.8 -5.2,6.3 -2,1.5 -4.1,2.3 -6.3,2.3 -2.8,0 -5.2,-0.8 -7.3,-2.3 -2.1,-1.5 -3.8,-3.6 -5.1,-6.3 -1.4,-2.7 -2.4,-5.8 -3,-9.4 -0.7,-3.6 -1,-7.5 -1,-11.8 0,-4.2 0.3,-8.1 1,-11.8 z" id="path924" />
		<path style="fill:#e4e4e3" d="m 1053.2,533.6 c 1.5,-2.1 2.3,-5.2 2.3,-9.1 0,2.5 -0.5,4.6 -1.5,6.4 -1,1.8 -2.2,3 -3.4,3.4 -1.3,0.5 -2.4,0.2 -3.4,-1 -1,-1.1 -1.5,-3.4 -1.5,-6.9 v -33.5 c 0,-0.7 0,-1.6 -0.1,-2.7 0,-1.1 -0.3,-2.4 -0.7,-3.8 -0.5,-1.4 -1.2,-2.7 -2.3,-4.1 -1.1,-1.4 -2.6,-2.6 -4.7,-3.8 -2.1,-1.1 -4.8,-2 -8,-2.8 -3.2,-0.7 -7.2,-1.1 -12,-1.1 -2.5,0 -5,0.4 -7.6,1.2 -2.6,0.8 -4.9,1.9 -7,3.3 -2.1,1.4 -3.8,3 -5.2,4.9 -1.4,1.8 -2,3.9 -2,6.1 0,2.6 0.9,4.8 2.8,6.6 1.8,1.8 4,2.7 6.5,2.7 2.7,-0.2 4.9,-1.1 6.7,-2.8 1.8,-1.7 2.6,-3.9 2.6,-6.5 0,-2.5 -0.9,-4.6 -2.7,-6.5 -1.8,-1.9 -4,-2.8 -6.6,-2.8 -1.6,0 -2.3,-0.2 -2.1,-0.6 0.2,-0.4 0.9,-0.8 2.1,-1.2 1.1,-0.4 2.5,-0.8 4.1,-1.2 1.6,-0.4 3,-0.6 4.2,-0.6 3.4,0 5.9,0.6 7.8,1.9 1.8,1.3 3.1,2.8 3.9,4.5 0.8,1.7 1.2,3.4 1.4,5.2 0.1,1.7 0.2,3.1 0.2,4.1 v 1.7 c -0.1,1.3 -0.6,2.4 -1.5,3.3 -0.7,0.8 -1.9,1.6 -3.5,2.2 -1.6,0.7 -3.9,1 -7,1 -4.4,0 -8.3,0.7 -11.7,2.1 -1.5,0.6 -2.9,1.4 -4.2,2.3 -1.4,1 -2.6,2.2 -3.7,3.6 -1.1,1.4 -2,3.2 -2.6,5.2 -0.7,2 -1,4.3 -1,7 0,2.6 0.3,4.9 1,6.8 0,0.1 0.1,0.2 0.1,0.3 -0.3,0.9 -0.6,1.8 -1,2.6 -1,1.8 -2.2,3 -3.4,3.4 -1.3,0.5 -2.4,0.2 -3.4,-1 -1,-1.1 -1.5,-3.4 -1.5,-6.9 v -35.9 c 0,-3.9 -1,-7 -2.9,-9.2 -1.9,-2.2 -4.1,-3.8 -6.5,-4.7 -2.7,-1.1 -5.8,-1.8 -9.4,-2 -2.1,0.1 -4.3,0.4 -6.4,0.9 -1.8,0.4 -3.7,1.1 -5.5,2 -1.9,0.9 -3.5,2.2 -4.9,3.9 V 476 h -25.5 v 0.1 c 1.4,0.2 2.5,0.6 3.4,1.3 1.1,0.9 1.9,1.9 2.4,3 0.6,1.3 0.9,2.8 1,4.3 v 62.7 c -0.1,1.6 -0.4,3.1 -1,4.4 -0.5,1.2 -1.3,2.2 -2.4,3 -1.1,0.9 -2.7,1.3 -4.7,1.3 h 35 c -2.1,0 -3.6,-0.4 -4.7,-1.3 -1.1,-0.9 -1.9,-1.9 -2.4,-3 -0.6,-1.3 -0.9,-2.8 -1,-4.4 v -64.1 c 3.1,-2.1 5.9,-3.4 8.4,-3.7 1.1,-0.2 2.1,-0.1 3.1,0.1 1,0.2 1.9,0.7 2.7,1.5 0.8,0.8 1.5,2 2,3.6 0.5,1.6 0.7,3.6 0.7,6 v 35.9 c 0,3.4 0.7,6.1 2.2,7.9 1.5,1.8 3.1,3.2 4.9,4.1 2.1,1 4.5,1.6 7.1,1.7 2.6,-0.2 5,-0.8 7.1,-2 1.8,-1 3.5,-2.5 5,-4.6 0.9,-1.3 1.6,-2.9 1.9,-4.8 0.6,1.6 1.4,3 2.4,4.3 1.1,1.4 2.3,2.5 3.7,3.4 1.4,0.9 2.8,1.6 4.2,2.1 3.4,1.2 7.3,1.8 11.7,1.6 2,0 3.7,-0.4 5.2,-1.2 1.5,-0.8 2.8,-1.8 3.8,-2.8 1,-1.1 1.8,-2.1 2.4,-3.1 0.6,-1 0.9,-1.7 1.1,-2.2 0.7,2.4 1.7,4.2 3.3,5.5 1.5,1.3 3.1,2.2 4.6,2.8 1.8,0.7 3.7,1.1 5.8,1.1 2.7,-0.2 5.1,-0.8 7.3,-2 1.3,-1.2 3,-2.8 4.5,-4.9 z m -26.5,-5.2 c -0.1,0.9 -0.4,1.9 -0.8,3 -0.5,1.1 -1.1,2.2 -1.8,3.1 -0.8,1 -1.6,1.8 -2.6,2.5 -0.9,0.7 -2,1 -3,1 -1.6,-0.2 -3,-1 -4.2,-2.5 -1.1,-1.2 -2,-3.1 -2.9,-5.7 -0.9,-2.5 -1.3,-6.3 -1.3,-11.2 0,-3.4 0.4,-6 1.2,-8 0.8,-2 1.7,-3.5 2.9,-4.6 1.1,-1.1 2.4,-1.9 3.8,-2.5 1.4,-0.5 2.7,-1.1 3.9,-1.6 1.2,-0.5 2.3,-1.2 3.2,-2 0.9,-0.8 1.5,-2 1.7,-3.7 z" id="path926" />
		<path style="fill:#e4e4e3" d="m 1078.9,537.5 c -1,-0.8 -1.7,-1.7 -2.2,-2.7 -0.6,-1.1 -0.9,-2.5 -0.9,-4.1 v -99 h -24.5 c 1.9,0 3.3,0.4 4.3,1.3 1,0.9 1.7,1.8 2.2,2.8 0.6,1.2 0.9,2.6 1,4.1 v 90.8 c -0.1,1.6 -0.4,2.9 -1,4.1 -0.5,1 -1.2,1.9 -2.2,2.7 -1,0.8 -2.4,1.2 -4.3,1.2 h 31.9 c -1.8,0 -3.2,-0.4 -4.3,-1.2 z" id="path928" />
		<path style="fill:#e4e4e3" d="m 710.2,550.7 c -2.4,0 -4.1,0.7 -5.3,2 -1.1,1.3 -1.7,2.9 -1.7,4.8 0,3.1 0.8,5.3 2.5,6.6 1.6,1.3 3.7,1.9 6,1.9 2.4,0 4.3,-0.9 5.7,-2.6 1.4,-1.7 2.2,-3.5 2.4,-5.4 0,-3.1 -0.6,-5.8 -1.8,-7.9 -1.2,-2.2 -2.9,-4 -5,-5.4 -2.1,-1.4 -4.7,-2.4 -7.7,-3.1 -2.7,-0.6 -5.6,-0.9 -8.8,-1 v 0 c -0.6,0 -1.5,-0.5 -1.5,-1.7 v -48.3 c 0,-3.9 -1,-7 -2.9,-9.2 -1.9,-2.2 -4.1,-3.8 -6.5,-4.7 -2.7,-1.1 -5.8,-1.8 -9.4,-2 -2.1,0.1 -4.3,0.4 -6.4,0.9 -1.8,0.4 -3.7,1.1 -5.5,2 -1.9,0.9 -3.5,2.2 -4.9,3.9 V 476 h -26.8 c 2.1,0 3.6,0.5 4.7,1.4 1.1,0.9 1.9,1.9 2.4,3 0.6,1.3 0.9,2.8 1,4.3 V 530 c -0.1,1.6 -0.4,11.7 -1,13 -0.5,1.2 -1.3,2.2 -2.4,3 -1.1,0.9 -2.7,1.3 -4.7,1.3 h 35 c -2.1,0 -3.6,-0.4 -4.7,-1.3 -1.1,-0.9 -1.9,-1.9 -2.4,-3 -0.6,-1.3 -0.9,-11.4 -1,-13 v -46.9 c 3.1,-2.1 4.8,-3.4 7.2,-3.7 1.1,-0.2 2.1,-0.1 3.1,0.1 1,0.2 1.9,0.7 2.7,1.5 0.8,0.8 1.5,2 2,3.6 0.5,1.6 0.7,3.6 0.7,6 v 60.6 c 0,0.1 0,0.3 0,0.4 v 5.1 c 0,0.5 0,1.1 0,1.7 v 28.9 h -8.9 v 2.1 h 8.9 v 63.8 c 0,0.4 -0.1,1.1 -0.2,2.1 -0.1,1 -0.5,2 -1,3.1 -0.6,1.1 -1.4,2 -2.5,2.8 -1.1,0.8 -2.5,1.2 -4.3,1.2 H 702 c -1.8,0 -3.2,-0.4 -4.3,-1.2 -1.1,-0.8 -1.9,-1.8 -2.4,-2.8 -0.5,-1.1 -0.9,-2.1 -1,-3.1 -0.2,-1 -0.2,-1.7 -0.2,-2.1 v -63.8 h 11.1 v -2.1 h -11.1 v -28.9 c -0.2,-3 0,-5.6 0.4,-7.9 0.4,-2 1.1,-3.8 2.2,-5.4 1,-1.6 2.6,-2.5 4.7,-2.5 2.6,0 4.9,0.4 7,1.3 2,0.9 3.5,1.8 4.5,2.8 1,1 1.3,1.9 1,2.8 -0.4,0.8 -1.6,1.2 -3.7,1.2 z" id="path930" />
		<path style="fill:#e4e4e3" d="m 897.6,550.5 c 0.2,-0.9 0.5,-1.9 1.1,-2.8 0.6,-0.9 1.4,-1.8 2.4,-2.5 1,-0.7 2.4,-1 4.1,-1 h -27 v 38.6 c -0.2,-1 -0.6,-2.1 -1.2,-3.3 -0.5,-1.2 -1.3,-2.3 -2.3,-3.3 -1,-1 -2.3,-1.9 -3.8,-2.6 -1.6,-0.7 -3.5,-1.1 -5.8,-1.1 -3.7,0 -6.9,0.5 -9.7,1.4 -2.8,0.9 -5.1,2.2 -7.1,3.8 -2,1.6 -3.7,3.3 -5,5.2 -1.4,1.9 -2.4,3.9 -3.3,6 -2.1,4.8 -3.1,10.2 -3.1,16.2 0.1,6.2 1,11.7 2.8,16.5 0.6,1.8 1.5,3.5 2.5,5.2 -0.2,0.7 -0.5,1.3 -0.8,1.9 -1,1.8 -2.2,3 -3.4,3.4 -1.3,0.5 -2.4,0.2 -3.4,-1 -1,-1.1 -1.5,-3.4 -1.5,-6.9 v -35.9 c 0,-3.9 -1,-7 -2.9,-9.2 -1.9,-2.2 -4.1,-3.8 -6.5,-4.7 -2.7,-1.1 -5.8,-1.8 -9.4,-2 -2.1,0.1 -4.3,0.4 -6.4,0.9 -1.8,0.4 -3.7,1.1 -5.5,2 -1.9,0.9 -3.5,2.2 -4.9,3.9 v -5.5 h -25.6 v 0.1 c 1.4,0.2 2.6,0.6 3.5,1.3 1.1,0.9 1.9,1.9 2.4,3 0.6,1.3 0.9,2.8 1,4.3 v 45.4 c -0.1,1.6 -0.4,3.1 -1,4.4 -0.5,1.2 -1.3,2.2 -2.4,3 -0.6,0.4 -1.2,0.8 -2,1 -0.8,-0.2 -1.5,-0.6 -2.1,-1 -1.1,-0.9 -1.8,-1.9 -2.3,-3.1 -0.6,-1.3 -0.9,-2.8 -1,-4.4 v -53.9 h -25.3 v 0.1 c 1.3,0.1 2.4,0.5 3.3,1 1.1,0.7 1.8,1.5 2.3,2.5 0.5,0.9 0.8,1.9 0.9,2.8 0.1,0.9 0.2,1.6 0.2,2 v 47.5 c -3.1,2.1 -5.9,3.4 -8.4,3.7 -1.1,0.2 -2.1,0.1 -3.1,-0.1 -1,-0.2 -1.9,-0.7 -2.6,-1.5 -0.8,-0.8 -1.4,-1.9 -1.9,-3.5 -0.5,-1.6 -0.7,-3.6 -0.7,-6 v -48.5 h -25 v 0.1 c 1.3,0.1 2.3,0.5 3.1,1 1.1,0.7 1.8,1.5 2.3,2.5 0.5,0.9 0.8,1.9 0.9,2.8 0.1,0.9 0.2,1.6 0.2,2 v 40.1 c 0,3.9 0.9,7 2.8,9.1 1.9,2.1 4,3.7 6.4,4.7 2.7,1.1 5.8,1.8 9.2,2 2.1,-0.1 4.1,-0.4 6.3,-0.9 1.7,-0.4 3.5,-1.1 5.5,-2 1.9,-0.9 3.6,-2.2 5,-3.9 v 5.3 h 21.3 5.3 29.7 c -2.1,0 -3.6,-0.4 -4.7,-1.3 -1.1,-0.9 -1.9,-1.9 -2.4,-3 -0.6,-1.3 -0.9,-2.8 -1,-4.4 V 581 c 3.1,-2.1 5.9,-3.4 8.4,-3.7 1.1,-0.2 2.1,-0.1 3.1,0.1 1,0.2 1.9,0.7 2.7,1.5 0.8,0.8 1.5,2 2,3.6 0.5,1.6 0.7,3.6 0.7,6 v 35.9 c 0,3.4 0.7,6.1 2.2,7.9 1.5,1.8 3.1,3.2 4.9,4.1 2.1,1 4.5,1.6 7.1,1.7 2.6,-0.2 5,-0.8 7.1,-2 1.8,-1 3.5,-2.5 5,-4.6 0.8,-1.1 1.4,-2.6 1.8,-4.2 0.1,0.2 0.2,0.3 0.3,0.5 1.3,2 2.8,3.7 4.7,5.2 1.8,1.5 4,2.8 6.6,3.7 2.5,0.9 5.5,1.4 8.9,1.4 3,0 5.5,-0.5 7.4,-1.6 1.9,-1.1 3.4,-2.3 4.4,-3.8 1.1,-1.5 1.8,-3 2.3,-4.4 0.5,-1.5 0.9,-2.7 1.1,-3.6 v 11.9 h 27 c -2.1,0 -3.6,-0.5 -4.7,-1.5 -1.1,-1 -1.8,-2.1 -2.3,-3.3 -0.6,-1.4 -0.9,-3 -1,-4.8 v -74.2 c 0,-0.6 0.1,-1.3 0.3,-2.3 z m -19.4,69.7 c -1.1,4.7 -2.6,8.5 -4.6,11.3 -2,2.9 -4.2,4.3 -6.6,4.3 -1.7,0 -3.3,-0.5 -4.9,-1.5 -1.5,-1 -2.9,-2.6 -4,-5 -1.2,-2.3 -2.1,-5.5 -2.7,-9.5 -0.7,-4 -1,-8.9 -1,-14.8 0,-5.9 0.3,-10.8 1,-14.8 0.7,-3.9 1.6,-7.1 2.7,-9.4 1.1,-2.3 2.5,-4 4,-4.9 1.5,-0.9 3.1,-1.4 4.9,-1.4 2.5,0 4.7,0.9 6.6,2.7 2,1.8 3.5,5 4.6,9.7 z" id="path932" />
		<path style="fill:#e4e4e3" d="m 946.3,604.5 -18,-15.5 c -1.7,-1.4 -3.2,-3 -4.5,-4.9 -1.3,-1.9 -1.9,-3.6 -1.9,-5.2 0,-1.6 0.8,-2.9 2.5,-3.9 1.6,-1 4.5,-1.3 8.6,-1 2.2,0.2 4.2,0.7 5.8,1.4 1.7,0.7 3.1,1.6 4.2,2.6 1.1,1 2.1,2.2 2.9,3.4 0.8,1.2 1.4,2.5 1.8,3.7 1,3 1.4,6.2 1.2,9.8 h 1.1 l 0.1,-21.8 h -0.5 c -0.1,0.7 -0.3,1.2 -0.6,1.6 -0.2,0.4 -0.6,0.8 -1,1 -0.5,0.3 -1,0.4 -1.8,0.4 -0.7,0 -1.4,-0.2 -2.2,-0.5 -0.8,-0.3 -1.7,-0.7 -2.8,-1.1 -1.1,-0.4 -2.3,-0.8 -3.6,-1.2 -1.4,-0.4 -2.9,-0.6 -4.7,-0.8 -3.8,-0.3 -7.3,-0.1 -10.5,0.7 -3.2,0.8 -6,2.1 -8.4,3.7 -2.3,1.6 -4.1,3.6 -5.4,6 -1.2,2.3 -1.7,4.8 -1.4,7.4 0.3,2.6 1.5,5.4 3.5,8.2 2,2.8 5.2,5.6 9.4,8.3 l 10.5,7.9 c 2.7,1.7 4.6,3.8 5.6,6.3 1,2.5 1.2,4.9 0.6,7.1 -0.6,2.3 -2,4.2 -4.1,5.8 -2.1,1.6 -5,2.4 -8.5,2.4 -2.1,0 -4,-0.3 -5.5,-0.9 -1.6,-0.6 -2.9,-1.4 -4,-2.3 -1.1,-1 -2,-2.1 -2.8,-3.3 -0.7,-1.2 -1.3,-2.5 -1.7,-3.8 -1,-3 -1.4,-6.5 -1.2,-10.5 h -1.1 l -0.1,21.8 h 0.5 c 0.1,-0.6 0.3,-1.1 0.6,-1.5 0.2,-0.4 0.6,-0.8 1,-1.1 0.5,-0.3 1,-0.5 1.8,-0.5 0.6,0 1.3,0.2 2,0.6 0.8,0.4 1.7,0.8 2.8,1.2 1.1,0.4 2.4,0.9 3.9,1.2 1.5,0.4 3.3,0.6 5.5,0.6 7.6,0 13.6,-1.2 17.8,-3.7 4.3,-2.5 7.1,-5.5 8.6,-9 1.4,-3.5 1.6,-7.2 0.4,-11 -1,-3.6 -3.2,-6.9 -6.4,-9.6 z" id="path934" />
		<path style="fill:#e4e4e3" d="m 628.5,527.2 c -1.3,2.2 -3.1,4.2 -5.2,6 -2.2,1.8 -4.7,3.1 -7.6,3.9 -1.4,0.4 -2.9,0.5 -4.5,0.4 -1.6,-0.1 -3.2,-0.5 -5,-1.1 -1.9,-0.7 -3.4,-1.9 -4.7,-3.6 -1.2,-1.8 -2.2,-3.7 -3,-5.9 -0.8,-2.2 -1.4,-4.4 -1.7,-6.8 -0.4,-2.3 -0.6,-4.5 -0.7,-6.5 -0.1,-2 -0.2,-3.7 -0.2,-4.9 0,-1.3 0,-1.9 0,-2 h 23.9 16.5 0.5 c -0.6,-5.9 -2,-11.2 -4.3,-15.9 -1,-2 -2.2,-3.9 -3.8,-5.8 -1.5,-1.9 -3.3,-3.7 -5.5,-5.2 -2.1,-1.5 -4.6,-2.7 -7.5,-3.6 -2.9,-0.9 -6.2,-1.4 -9.8,-1.4 -4.2,0 -8.1,0.8 -11.6,2.5 -3.6,1.6 -6.6,3.9 -9.2,6.8 -2.5,2.9 -4.5,6.3 -6,10.2 -1.4,3.9 -2.2,8.1 -2.2,12.6 0,6.2 0.8,11.5 2.5,15.8 1.6,4.3 3.8,7.7 6.5,10.3 2.7,2.6 5.7,4.5 9.2,5.7 3.5,1.1 7.1,1.7 10.9,1.7 3.9,0 7.1,-0.5 9.8,-1.4 2.7,-0.9 5,-2 6.8,-3.4 1.8,-1.4 3.3,-2.9 4.4,-4.5 1.1,-1.6 1.9,-3.1 2.5,-4.5 0.2,-0.4 0.3,-0.9 0.5,-1.4 l -0.3,-0.1 c -0.3,0.5 -0.7,1.3 -1.2,2.1 z M 596.1,496 c 0.1,-3.1 0.6,-6.1 1.3,-8.9 0.7,-2.8 1.9,-5.2 3.6,-7.2 1.6,-2 3.9,-3 6.9,-3 3,0 5.3,1 6.9,3 1.6,2 2.8,4.4 3.6,7.2 0.7,2.8 1.2,5.8 1.3,8.9 0.1,3.1 0.2,5.8 0.2,8 H 596 c -0.1,-2.2 0,-4.9 0.1,-8 z" id="path936" />
		<path style="fill:#e4e4e3" d="m 769.2,480.1 c 0.6,1.2 0.9,2.6 1,4.1 v 47.4 c -0.1,1.6 -0.4,3.1 -1,4.3 -0.5,1.2 -1.3,2.2 -2.4,3 -0.9,0.7 -2.1,1.1 -3.7,1.2 v 0.1 h 25.6 v -57.6 c 0.2,-0.2 0.8,-0.5 1.8,-1.1 0.9,-0.6 2,-1.1 3.3,-1.5 1.2,-0.4 2.5,-0.8 3.9,-0.9 1.4,-0.2 2.6,0.1 3.8,0.7 1.1,0.6 2.1,1.7 2.8,3.4 0.7,1.6 1.1,4 1.1,7.1 v 57.2 c -0.1,1.6 -0.4,3.1 -1,4.3 -0.5,1.1 -1.3,2 -2.4,2.9 -0.9,0.7 -2,1.1 -3.4,1.2 v 0.1 h 32.2 v -0.1 c -1.5,-0.1 -2.7,-0.5 -3.5,-1.2 -1.1,-0.9 -1.8,-1.8 -2.3,-2.9 -0.6,-1.2 -0.9,-2.7 -1,-4.3 v -57.2 c 0,-1.6 -0.2,-3.1 -0.5,-4.3 -0.3,-1.2 -0.8,-2.4 -1.5,-3.4 0.6,-0.3 1.4,-0.8 2.3,-1.3 1,-0.5 2.1,-1 3.3,-1.4 1.2,-0.4 2.4,-0.6 3.6,-0.6 1.2,0 2.3,0.3 3.3,1 1,0.7 1.8,1.8 2.5,3.4 0.7,1.6 1,3.8 1,6.7 v 36.2 c 0,3.4 0.7,6.1 2.2,7.8 1.5,1.8 3.1,3.1 4.9,4 2.1,1 4.5,1.6 7.1,1.7 2.6,-0.2 5,-0.8 7.1,-2 1.8,-1 3.4,-2.5 4.9,-4.6 1.3,-1.8 2,-4.4 2.2,-7.6 1.4,2.7 3,5 4.9,6.8 2.7,2.6 5.7,4.5 9.2,5.7 3.5,1.1 7.1,1.7 10.9,1.7 3.9,0 7.1,-0.5 9.8,-1.4 2.7,-0.9 5,-2 6.8,-3.4 1.8,-1.4 3.3,-2.9 4.4,-4.5 1.1,-1.6 1.9,-3.1 2.5,-4.5 0.2,-0.6 0.5,-1.3 0.7,-2 l -0.2,-0.1 c -0.4,0.9 -0.9,1.8 -1.5,2.9 -1.3,2.2 -3.1,4.2 -5.2,6 -2.2,1.8 -4.7,3.1 -7.6,3.9 -2.9,0.8 -6,0.6 -9.5,-0.7 -1.9,-0.7 -3.4,-1.9 -4.7,-3.6 -1.2,-1.8 -2.2,-3.7 -3,-5.9 -0.8,-2.2 -1.4,-4.4 -1.7,-6.8 -0.4,-2.3 -0.6,-4.5 -0.7,-6.5 -0.1,-2 -0.2,-3.7 -0.2,-4.9 0,-1.3 0,-1.9 0,-2 h 23.9 16.5 0.5 c -0.6,-5.9 -2,-11.2 -4.3,-15.9 -1,-2 -2.2,-3.9 -3.8,-5.8 -1.5,-1.9 -3.3,-3.7 -5.5,-5.2 -2.1,-1.5 -4.6,-2.7 -7.5,-3.6 -2.9,-0.9 -6.2,-1.4 -9.8,-1.4 -4.2,0 -8.1,0.8 -11.6,2.5 -3.6,1.6 -6.6,3.9 -9.2,6.8 -2.5,2.9 -4.5,6.3 -6,10.2 -1.4,3.9 -2.2,8.1 -2.2,12.6 0,6.2 0.8,11.5 2.5,15.8 0.5,1.2 1,2.4 1.5,3.4 -0.2,1.9 -0.6,3.6 -1.5,5.1 -1,1.8 -2.2,3 -3.4,3.5 -1.3,0.5 -2.4,0.2 -3.4,-0.9 -1,-1.1 -1.5,-3.4 -1.5,-6.9 v -36.2 c 0,-3.9 -1,-7 -2.9,-9.1 -1.9,-2.1 -4.1,-3.7 -6.5,-4.7 -2.7,-1.1 -5.8,-1.8 -9.2,-2 -2.1,0.1 -4.2,0.4 -6.3,0.9 -1.7,0.4 -3.5,1.1 -5.4,2 -1.9,0.9 -3.5,2.2 -4.9,3.9 -1.3,-1.7 -2.9,-3.1 -4.7,-4 -1.8,-0.9 -3.6,-1.6 -5.2,-2 -2,-0.5 -4,-0.7 -6,-0.7 -2.1,0 -4.2,0.2 -6.3,0.6 -1.7,0.4 -3.5,1 -5.4,1.9 -1.9,0.9 -3.5,2.1 -4.9,3.8 v -5 h -26.7 c 2.1,0 3.6,0.4 4.7,1.3 1.1,0.9 1.9,1.6 2.4,2.6 z M 881.6,496 c 0.1,-3.1 0.6,-6.1 1.3,-8.9 0.7,-2.8 1.9,-5.2 3.6,-7.2 1.6,-2 3.9,-3 6.9,-3 3,0 5.3,1 6.9,3 1.6,2 2.8,4.4 3.6,7.2 0.7,2.8 1.2,5.8 1.3,8.9 0.1,3.1 0.2,5.8 0.2,8 h -23.9 c 0,-2.2 0,-4.9 0.1,-8 z" id="path938" />
	</g>
	<g id="g962" transform="translate(-241.80001,-242.49999)">
		<path style="fill:#e4e4e3" d="m 682.2,753.3 v -42 h 5.6 v 37.1 h 20.7 v 5 h -26.3 z" id="path942" />
		<path style="fill:#e4e4e3" d="m 712.5,738.1 c 0,-5.6 1.6,-9.8 4.7,-12.5 2.6,-2.3 5.8,-3.4 9.6,-3.4 4.2,0 7.6,1.4 10.3,4.1 2.7,2.7 4,6.5 4,11.4 0,3.9 -0.6,7 -1.8,9.2 -1.2,2.2 -2.9,4 -5.1,5.2 -2.2,1.2 -4.7,1.9 -7.4,1.9 -4.3,0 -7.7,-1.4 -10.3,-4.1 -2.7,-2.7 -4,-6.6 -4,-11.8 z m 5.3,0 c 0,3.9 0.9,6.8 2.6,8.8 1.7,2 3.8,2.9 6.4,2.9 2.6,0 4.7,-1 6.4,-2.9 1.7,-1.9 2.6,-4.9 2.6,-8.9 0,-3.8 -0.9,-6.6 -2.6,-8.6 -1.7,-1.9 -3.8,-2.9 -6.4,-2.9 -2.6,0 -4.7,1 -6.4,2.9 -1.7,1.9 -2.6,4.8 -2.6,8.7 z" id="path944" />
		<path style="fill:#e4e4e3" d="m 766.9,749.6 c -1.9,1.6 -3.7,2.8 -5.5,3.4 -1.8,0.7 -3.7,1 -5.7,1 -3.3,0 -5.9,-0.8 -7.7,-2.5 -1.8,-1.6 -2.7,-3.7 -2.7,-6.3 0,-1.5 0.3,-2.9 1,-4.1 0.7,-1.2 1.6,-2.2 2.7,-3 1.1,-0.7 2.3,-1.3 3.7,-1.7 1,-0.3 2.5,-0.5 4.6,-0.8 4.2,-0.5 7.2,-1.1 9.2,-1.8 0,-0.7 0,-1.2 0,-1.3 0,-2.1 -0.5,-3.6 -1.5,-4.4 -1.3,-1.2 -3.3,-1.7 -5.9,-1.7 -2.4,0 -4.2,0.4 -5.4,1.3 -1.2,0.9 -2,2.4 -2.6,4.5 l -5,-0.7 c 0.5,-2.2 1.2,-3.9 2.3,-5.2 1.1,-1.3 2.6,-2.3 4.6,-3.1 2,-0.8 4.3,-1.1 6.9,-1.1 2.6,0 4.7,0.3 6.3,0.9 1.6,0.6 2.8,1.4 3.6,2.3 0.8,0.9 1.3,2.1 1.6,3.5 0.2,0.9 0.3,2.5 0.3,4.8 v 6.9 c 0,4.8 0.1,7.8 0.3,9.1 0.2,1.3 0.7,2.5 1.3,3.7 H 768 c -0.6,-1 -0.9,-2.3 -1.1,-3.7 z m -0.4,-11.5 c -1.9,0.8 -4.7,1.4 -8.4,1.9 -2.1,0.3 -3.6,0.6 -4.5,1 -0.9,0.4 -1.6,0.9 -2,1.7 -0.5,0.7 -0.7,1.6 -0.7,2.5 0,1.4 0.5,2.5 1.6,3.4 1,0.9 2.6,1.4 4.6,1.4 2,0 3.8,-0.4 5.3,-1.3 1.5,-0.9 2.7,-2.1 3.4,-3.6 0.6,-1.2 0.8,-2.9 0.8,-5.2 v -1.8 z" id="path946" />
		<path style="fill:#e4e4e3" d="m 799.5,753.3 v -3.8 c -1.9,3 -4.8,4.5 -8.5,4.5 -2.4,0 -4.7,-0.7 -6.7,-2 -2,-1.3 -3.6,-3.2 -4.7,-5.6 -1.1,-2.4 -1.7,-5.2 -1.7,-8.3 0,-3 0.5,-5.8 1.5,-8.3 1,-2.5 2.5,-4.4 4.6,-5.7 2,-1.3 4.3,-2 6.8,-2 1.8,0 3.5,0.4 4.9,1.2 1.4,0.8 2.6,1.8 3.5,3 v -15.1 h 5.1 v 42 h -4.8 z m -16.3,-15.1 c 0,3.9 0.8,6.8 2.5,8.7 1.7,1.9 3.6,2.9 5.8,2.9 2.3,0 4.2,-0.9 5.7,-2.8 1.6,-1.8 2.4,-4.7 2.4,-8.4 0,-4.2 -0.8,-7.2 -2.4,-9.2 -1.6,-1.9 -3.6,-2.9 -5.9,-2.9 -2.3,0 -4.2,0.9 -5.7,2.8 -1.7,1.9 -2.4,4.8 -2.4,8.9 z" id="path948" />
		<path style="fill:#e4e4e3" d="m 812.4,717.3 v -5.9 h 5.2 v 5.9 z m 0,36 v -30.4 h 5.2 v 30.4 z" id="path950" />
		<path style="fill:#e4e4e3" d="m 825.4,753.3 v -30.4 h 4.6 v 4.3 c 2.2,-3.3 5.5,-5 9.7,-5 1.8,0 3.5,0.3 5.1,1 1.5,0.7 2.7,1.5 3.5,2.6 0.8,1.1 1.3,2.3 1.6,3.8 0.2,1 0.3,2.6 0.3,5 v 18.7 H 845 v -18.5 c 0,-2.1 -0.2,-3.7 -0.6,-4.7 -0.4,-1 -1.1,-1.9 -2.1,-2.5 -1,-0.6 -2.2,-0.9 -3.6,-0.9 -2.2,0 -4.1,0.7 -5.7,2.1 -1.6,1.4 -2.4,4 -2.4,7.9 v 16.6 z" id="path952" />
		<path style="fill:#e4e4e3" d="m 857.1,755.9 5,0.7 c 0.2,1.5 0.8,2.7 1.7,3.4 1.3,1 3,1.4 5.2,1.4 2.4,0 4.2,-0.5 5.5,-1.4 1.3,-1 2.2,-2.3 2.6,-4 0.3,-1.1 0.4,-3.3 0.4,-6.6 -2.3,2.7 -5.1,4 -8.4,4 -4.2,0 -7.4,-1.5 -9.7,-4.5 -2.3,-3 -3.4,-6.6 -3.4,-10.9 0,-2.9 0.5,-5.6 1.6,-8 1.1,-2.5 2.6,-4.4 4.6,-5.7 2,-1.3 4.3,-2 7,-2 3.6,0 6.6,1.5 8.9,4.4 V 723 h 4.8 v 26.3 c 0,4.7 -0.5,8.1 -1.4,10.1 -1,2 -2.5,3.5 -4.6,4.7 -2.1,1.1 -4.7,1.7 -7.7,1.7 -3.6,0 -6.6,-0.8 -8.8,-2.5 -2.3,-1.7 -3.4,-4.1 -3.3,-7.4 z m 4.3,-18.3 c 0,4 0.8,6.9 2.4,8.7 1.6,1.8 3.6,2.8 6,2.8 2.4,0 4.4,-0.9 6,-2.7 1.6,-1.8 2.4,-4.7 2.4,-8.6 0,-3.7 -0.8,-6.5 -2.5,-8.4 -1.7,-1.9 -3.6,-2.8 -6,-2.8 -2.3,0 -4.2,0.9 -5.8,2.8 -1.6,1.9 -2.5,4.5 -2.5,8.2 z" id="path954" />
		<path style="fill:#e4e4e3" d="m 892.1,753.3 v -5.9 h 5.9 v 5.9 z" id="path956" />
		<path style="fill:#e4e4e3" d="m 908.4,753.3 v -5.9 h 5.9 v 5.9 z" id="path958" />
		<path style="fill:#e4e4e3" d="m 924.8,753.3 v -5.9 h 5.9 v 5.9 z" id="path960" />
	</g>
	<rect x="300.81091" y="1074.119" transform="rotate(-45)" width="94.799095" height="94.799095" id="rect966" style="stroke-width:0.99999;fill:#f38b74;enable-background:new;" />
	<rect x="327.20718" y="1047.7529" transform="rotate(-45)" width="94.799095" height="94.799095" id="rect968" style="stroke-width:0.99999;fill:#e4e4e3;" />
	<circle style="fill:#364b6e" cx="96.900002" cy="96.900002" r="96.900002" id="circle970" />
	<rect x="-40.132729" y="197.42303" transform="rotate(-45)" width="71.799316" height="71.799316" id="rect972" style="stroke-width:0.99999;fill:#e4e4e3;" />
</svg>
